<?xml version="1.0" encoding="UTF-8" standalone="no"?>
<svg
   width="16"
   height="16"
   version="1.1"
   id="svg1"
   sodipodi:docname="network-wireless-hotspot.svg"
   inkscape:version="1.4.2 (ebf0e940d0, 2025-05-08)"
   xmlns:inkscape="http://www.inkscape.org/namespaces/inkscape"
   xmlns:sodipodi="http://sodipodi.sourceforge.net/DTD/sodipodi-0.dtd"
   xmlns="http://www.w3.org/2000/svg"
   xmlns:svg="http://www.w3.org/2000/svg">
  <defs
     id="defs1" />
  <sodipodi:namedview
     id="namedview1"
     pagecolor="#ffffff"
     bordercolor="#000000"
     borderopacity="0.25"
     inkscape:showpageshadow="2"
     inkscape:pageopacity="0.0"
     inkscape:pagecheckerboard="0"
     inkscape:deskcolor="#d1d1d1"
     inkscape:zoom="51.125"
     inkscape:cx="7.99022"
     inkscape:cy="8"
     inkscape:window-width="1876"
     inkscape:window-height="1002"
     inkscape:window-x="0"
     inkscape:window-y="0"
     inkscape:window-maximized="1"
     inkscape:current-layer="svg1" />
  <path
     d="m8 2.6452c-2.6512 0-5.3024 0.82849-7.6221 2.4855l0.66279 0.66279c4.6396-3.024 9.3408-3.0753 13.919 0l0.66279-0.66279c-2.3198-1.657-4.971-2.4855-7.6221-2.4855zm0 3.1068c-1.9884 0-3.9768 0.66279-5.6338 1.9884l0.6628 0.66279c3.314-2.3198 6.6279-2.3405 9.9419 0l0.66279-0.66279c-1.657-1.3256-3.6454-1.9884-5.6338-1.9884zm0 2.8169c-1.3256 0-2.6512 0.4971-3.6454 1.4913l3.6454 3.6454 3.6454-3.6454c-0.99419-0.99419-2.3198-1.4913-3.6454-1.4913z"
     fill="#f2f2f2"
     stroke-width=".93589"
     id="path1" />
  <path
     style="fill:#000000;fill-rule:evenodd;stroke-width:0.0195599"
     d="M 0.71860409,5.4618867 C 0.54390973,5.2869514 0.400978,5.138552 0.400978,5.1321103 c 0,-0.017598 0.42201819,-0.3019024 0.7432763,-0.5007292 2.8327746,-1.7532067 6.1412504,-2.3683918 9.3300737,-1.734854 1.416663,0.281455 2.847856,0.8269139 4.097799,1.5617612 0.326007,0.1916612 1.026895,0.6506156 1.026895,0.6724301 0,0.00769 -0.144238,0.1580194 -0.320528,0.3340669 L 14.957966,5.784872 14.872626,5.7264333 C 14.386033,5.3932262 13.511676,4.8998134 12.938875,4.6351889 10.881899,3.6848984 8.8832405,3.3356973 6.8387503,3.569389 4.9749465,3.7824277 3.0666253,4.4952346 1.2286215,5.664916 1.1292015,5.728185 1.0452422,5.7799511 1.0420444,5.7799511 c -0.0032,0 -0.14874597,-0.143129 -0.32344031,-0.3180644 z"
     id="path2" />
  <path
     style="fill:#000000;fill-rule:evenodd;stroke-width:0.0195599"
     d="M 2.6995053,8.0686987 2.3724844,7.7412528 2.5945551,7.5746823 C 4.5329854,6.120707 6.9307914,5.5084039 9.3148694,5.8585845 10.781528,6.0740117 12.184494,6.662798 13.405445,7.5752863 L 13.627516,7.7412528 13.301253,8.0679394 12.97499,8.3946261 12.668584,8.1911531 C 11.614093,7.4909055 10.50253,7.0085939 9.4571028,6.7976791 8.1769404,6.5394066 6.9301532,6.6194691 5.6526042,7.0419851 4.8837226,7.2962728 4.0366753,7.7187329 3.2849763,8.2228266 L 3.0265262,8.3961445 Z"
     id="path3" />
  <path
     style="fill:#000000;fill-rule:evenodd;stroke-width:0.0195599"
     d="M 6.1809028,11.88125 4.3618582,10.060762 4.5085575,9.9243942 C 5.2402402,9.2442428 6.1884132,8.795087 7.2371638,8.6318354 c 0.3976278,-0.061896 1.1304321,-0.061455 1.5326275,9.223e-4 0.8881696,0.1377479 1.6707337,0.4663663 2.3597927,0.9909359 0.118338,0.090088 0.281174,0.2252888 0.361859,0.3004452 l 0.146699,0.1366482 -1.8190973,1.820475 -1.8190973,1.820476 z"
     id="path4" />
</svg>
