<?xml version="1.0" encoding="UTF-8" standalone="no"?>
<svg
   width="16"
   height="16"
   version="1.1"
   id="svg4"
   sodipodi:docname="network-wireless-offline.svg"
   inkscape:version="1.4.2 (ebf0e940d0, 2025-05-08)"
   xmlns:inkscape="http://www.inkscape.org/namespaces/inkscape"
   xmlns:sodipodi="http://sodipodi.sourceforge.net/DTD/sodipodi-0.dtd"
   xmlns="http://www.w3.org/2000/svg"
   xmlns:svg="http://www.w3.org/2000/svg">
  <defs
     id="defs4" />
  <sodipodi:namedview
     id="namedview4"
     pagecolor="#ffffff"
     bordercolor="#000000"
     borderopacity="0.25"
     inkscape:showpageshadow="2"
     inkscape:pageopacity="0.0"
     inkscape:pagecheckerboard="0"
     inkscape:deskcolor="#d1d1d1"
     inkscape:zoom="51.125"
     inkscape:cx="7.99022"
     inkscape:cy="8"
     inkscape:window-width="1876"
     inkscape:window-height="1002"
     inkscape:window-x="0"
     inkscape:window-y="0"
     inkscape:window-maximized="1"
     inkscape:current-layer="svg4" />
  <g
     fill="#f2f2f2"
     id="g3">
    <path
       d="m8 3c-2.8405-3e-7 -5.4324 1.0071-7.4863 2.6582a0.5 0.5 0 0 0-0.095703 0.072266 0.5 0.5 0 0 0-0.1543 0.35938 0.5 0.5 0 0 0 0.5 0.5 0.5 0.5 0 0 0 0.31836-0.11328c1.891-1.5388 4.2898-2.4766 6.918-2.4766 2.6282-3e-7 5.0269 0.93776 6.918 2.4766a0.5 0.5 0 0 0 0.31836 0.11328 0.5 0.5 0 0 0 0.5-0.5 0.5 0.5 0 0 0-0.1543-0.35938 0.5 0.5 0 0 0-0.0957-0.072266c-2.0539-1.6511-4.6459-2.6582-7.4863-2.6582z"
       fill-rule="evenodd"
       style="paint-order:stroke fill markers"
       id="path1" />
    <path
       transform="translate(3e-8 -.007)"
       d="m8 9.0078c-1.3525-2e-7 -2.5832 0.46891-3.5859 1.2246-0.11034 0.09497-0.16795 0.23918-0.16797 0.38477 0 0.27614 0.22386 0.5 0.5 0.5 0.12436-3.26e-4 0.24413-0.04698 0.33594-0.13086 0.82215-0.60306 1.8199-0.97852 2.918-0.97852 0.69469 0 1.3422 0.16267 1.9375 0.42578v-0.42578h1.3008c-0.93616-0.6149-2.0341-1-3.2383-1z"
       id="path2" />
    <path
       d="m8 6c-2.0731 0-3.9681 0.71726-5.4883 1.8965a0.5 0.5 0 0 0-0.10156 0.074219 0.5 0.5 0 0 0-0.15625 0.36133 0.5 0.5 0 0 0 0.5 0.5 0.5 0.5 0 0 0 0.32031-0.11523c1.3588-1.0688 3.0627-1.7168 4.9258-1.7168 1.8631-2e-7 3.567 0.64796 4.9258 1.7168a0.5 0.5 0 0 0 0.32031 0.11523 0.5 0.5 0 0 0 0.5-0.5 0.5 0.5 0 0 0-0.15625-0.36133 0.5 0.5 0 0 0-0.10156-0.074219c-1.5202-1.1792-3.4152-1.8965-5.4883-1.8965z"
       fill-rule="evenodd"
       style="paint-order:stroke fill markers"
       id="path3" />
    <circle
       cx="8"
       cy="13"
       r="1"
       fill-rule="evenodd"
       style="paint-order:stroke fill markers"
       id="circle3" />
  </g>
  <g
     transform="translate(0 -.007)"
     fill="#f2f2f2"
     id="g4">
    <path
       d="m11 11.007v1c0 0.276 0.1 0.537 0.282 0.718l0.78 0.782-0.78 0.78a1.015 1.015 0 0 0-0.282 0.72v1h1c0.276 0 0.538-0.1 0.719-0.282l0.781-0.78 0.782 0.78c0.18 0.181 0.442 0.282 0.718 0.282h1v-1c0-0.276-0.1-0.538-0.281-0.72l-0.781-0.78 0.781-0.782c0.181-0.18 0.281-0.442 0.281-0.718v-1h-1c-0.276 0-0.537 0.1-0.718 0.28l-0.782 0.782-0.781-0.781a1.015 1.015 0 0 0-0.719-0.281z"
       fill="#f2f2f2"
       id="path4" />
  </g>
  <path
     style="fill:#000000;fill-rule:evenodd;stroke-width:0.0195599"
     d="M 0.56723716,6.5358856 C 0.30471146,6.4133747 0.19829835,6.1082656 0.33225532,5.8621426 0.37877595,5.7766689 0.43998942,5.7211339 0.73149749,5.4999366 1.6901551,4.7725038 2.5660006,4.2732175 3.6288092,3.8482891 c 2.797246,-1.118385 5.964471,-1.1174399 8.7545008,0.00261 1.120315,0.4497481 2.039121,0.9875998 3.120377,1.8266104 C 15.698897,5.828987 15.771,6.043531 15.698382,6.2568354 15.64072,6.4262105 15.426269,6.5813215 15.249213,6.581716 15.120623,6.5820025 15.029474,6.5475077 14.902181,6.4503838 14.145588,5.8731049 13.734351,5.6019102 13.114914,5.2717526 11.867127,4.6066856 10.575491,4.2135065 9.0855746,4.0452049 8.7018682,4.0018612 7.394194,3.9955174 7.0122249,4.0351466 5.5007223,4.1919647 4.1800966,4.5871714 2.8948655,5.267296 2.2768229,5.5943548 1.860672,5.8683282 1.0978186,6.4503838 0.91234703,6.5918983 0.7450398,6.6188595 0.56723716,6.5358856 Z"
     id="path5" />
  <path
     style="fill:#000000;fill-rule:evenodd;stroke-width:0.0195599"
     d="M 2.6797066,8.8179724 C 2.5092708,8.7796958 2.3864815,8.689851 2.3121229,8.5490114 2.2532988,8.4375953 2.253427,8.2272055 2.312387,8.1155075 2.3643024,8.0171554 2.4193992,7.9681901 2.7401849,7.735318 3.8473412,6.9315855 5.1101109,6.386273 6.405868,6.1523351 7.0795652,6.0307048 7.9881074,5.9822814 8.6552567,6.0324475 10.31803,6.1574791 11.884217,6.7372627 13.264307,7.7386623 c 0.315978,0.2292759 0.371503,0.2787063 0.423306,0.3768452 0.05573,0.1055767 0.05906,0.3221686 0.0065,0.4223898 -0.111988,0.2135353 -0.327111,0.3200814 -0.552,0.2733946 C 13.06017,8.7942801 12.994181,8.7565547 12.827288,8.6313076 11.634913,7.736474 10.352192,7.2201482 8.8704156,7.0385729 c -0.3991724,-0.048914 -1.3416588,-0.048914 -1.7408312,0 C 5.6489299,7.2200108 4.3565551,7.740284 3.17443,8.6308053 3.0137932,8.7518165 2.9417913,8.7935527 2.8653987,8.8099358 2.7623444,8.8320372 2.7455665,8.8327632 2.6797066,8.8179724 Z"
     id="path6" />
  <path
     style="fill:#000000;fill-rule:evenodd;stroke-width:0.0195599"
     d="M 4.5818674,11.072337 C 4.2773183,10.963655 4.1620518,10.593728 4.3460846,10.315635 4.4528987,10.154228 5.2748123,9.6589732 5.7799511,9.4516398 7.5135241,8.7400978 9.3910954,8.8918401 11.022005,9.8752942 l 0.166259,0.1002559 -0.625917,0.00978 -0.6259167,0.00978 -0.00554,0.2088919 -0.00554,0.208893 -0.1313815,-0.05412 C 9.2132577,10.119585 8.6184178,9.9998992 8.00978,9.9997866 7.4575953,9.9996844 7.0139832,10.07023 6.4971489,10.240334 c -0.376352,0.123867 -0.8830965,0.372076 -1.2022961,0.588899 -0.3398161,0.230827 -0.4205595,0.27119 -0.540414,0.270153 -0.05455,-4.72e-4 -0.1322073,-0.01264 -0.1725714,-0.02705 z"
     id="path7" />
  <path
     style="fill:#000000;fill-rule:evenodd;stroke-width:0.0195599"
     d="M 7.7801987,13.965494 C 7.3402465,13.869911 7.013224,13.461447 7.0124571,13.006555 7.0118686,12.657496 7.1798556,12.35308 7.4801834,12.158969 c 0.2166794,-0.140047 0.5380695,-0.185097 0.7936552,-0.111248 0.7148722,0.206555 0.9539327,1.119923 0.4303149,1.644085 -0.2499752,0.250236 -0.5808211,0.348237 -0.9239548,0.273688 z"
     id="path8" />
  <path
     style="fill:#000000;fill-rule:evenodd;stroke-width:0.0195599"
     d="m 11.002593,15.466993 c 1.68e-4,-0.597433 0.01426,-0.716794 0.108722,-0.921255 0.06233,-0.134903 0.10332,-0.182486 0.507585,-0.589214 0.241879,-0.243353 0.43978,-0.450929 0.43978,-0.461281 0,-0.01035 -0.185764,-0.203582 -0.412809,-0.429403 -0.435964,-0.433614 -0.516297,-0.534155 -0.587707,-0.73554 -0.04159,-0.117304 -0.04475,-0.161688 -0.05172,-0.727893 l -0.0074,-0.602973 0.603178,0.007 c 0.568466,0.0066 0.610367,0.0095 0.728099,0.05151 0.208206,0.07427 0.326761,0.167279 0.760379,0.596557 l 0.415862,0.411699 0.445716,-0.443017 c 0.621704,-0.617938 0.62621,-0.619795 1.504956,-0.620355 l 0.533007,-3.4e-4 -2.89e-4,0.562347 c -4.5e-4,0.875911 0.0039,0.865427 -0.616909,1.491443 l -0.436428,0.440098 0.434035,0.440097 c 0.624321,0.633043 0.618854,0.619876 0.619302,1.491443 l 2.89e-4,0.562347 h -0.563128 c -0.865,0 -0.840174,0.01035 -1.465149,-0.610992 L 13.506152,14.926107 13.061155,15.3678 c -0.63151,0.626821 -0.61925,0.621723 -1.496342,0.622174 l -0.562347,2.89e-4 z"
     id="path9" />
</svg>
