<?xml version="1.0" encoding="UTF-8" standalone="no"?>
<svg
   width="16"
   height="16"
   version="1.1"
   id="svg6"
   sodipodi:docname="network-wired-no-route.svg"
   inkscape:version="1.4.2 (ebf0e940d0, 2025-05-08)"
   xmlns:inkscape="http://www.inkscape.org/namespaces/inkscape"
   xmlns:sodipodi="http://sodipodi.sourceforge.net/DTD/sodipodi-0.dtd"
   xmlns="http://www.w3.org/2000/svg"
   xmlns:svg="http://www.w3.org/2000/svg">
  <defs
     id="defs6" />
  <sodipodi:namedview
     id="namedview6"
     pagecolor="#ffffff"
     bordercolor="#000000"
     borderopacity="0.25"
     inkscape:showpageshadow="2"
     inkscape:pageopacity="0.0"
     inkscape:pagecheckerboard="0"
     inkscape:deskcolor="#d1d1d1"
     inkscape:zoom="50.75"
     inkscape:cx="7.9901478"
     inkscape:cy="8"
     inkscape:window-width="1876"
     inkscape:window-height="996"
     inkscape:window-x="0"
     inkscape:window-y="0"
     inkscape:window-maximized="1"
     inkscape:current-layer="svg6" />
  <g
     transform="translate(0 2)"
     fill="#f2f2f2"
     stroke-width="1.5"
     id="g5">
    <g
       transform="matrix(.43738 0 0 .5 -145.4 -266.68)"
       id="g2">
      <g
         transform="matrix(0,-1.0825,-1.0825,0,1464.7,557.15)"
         fill="#f2f2f2"
         stroke-width="1.5"
         id="g1" />
    </g>
    <g
       transform="matrix(-.43738 0 0 -.5 161.4 278.68)"
       id="g4">
      <g
         transform="matrix(0,-1.0825,-1.0825,0,1464.7,557.15)"
         fill="#f2f2f2"
         stroke-width="1.5"
         id="g3" />
    </g>
  </g>
  <path
     d="m3 1c-1.662 0-3 1.338-3 3v5c0 1.662 1.338 3 3 3h3v2h-1.5c-0.277 0-0.5 0.223-0.5 0.5s0.223 0.5 0.5 0.5h7c0.14148 0 0.26859-0.05851 0.35938-0.15234-0.06791-0.19114-0.10742-0.39113-0.10742-0.58398 0-0.06175 0.0044-0.12464 0.01172-0.1875-0.076626-0.04766-0.16642-0.076172-0.26367-0.076172h-2.5v-2h2.9785c6.56e-4 -0.11447 0.007504-0.2298 0.021484-0.34375v-0.65625h-9c-1.108 0-2-0.892-2-2v-5c0-1.108 0.892-2 2-2h7v-1zm9 0c-0.554 0-1 0.446-1 1v5c0 0.051073 0.0064 0.099465 0.01367 0.14844 0.12145-0.14087 0.25285-0.27538 0.39453-0.40039 0.17969-0.15895 0.37952-0.29236 0.5918-0.40039v-1.3477h3v1.3242c0.28903 0.13585 0.55574 0.3144 0.78906 0.53516 0.07157 0.066894 0.13929 0.13719 0.20313 0.21094 0.001678-0.023795 0.007812-0.046076 0.007812-0.070312v-5c0-0.554-0.446-1-1-1zm0 1h3v2h-3zm3.0605 5.5273c0.0022 0.00203 0.0017 0.00576 0.0039 0.00781 0.0022 0.0021 0.0056 0.0018 0.0078 0.00391zm-8.0605 4.4727h1v2h-1z"
     fill="#f2f2f2"
     id="path5" />
  <path
     d="m13.5 7c0.65763 0 1.1922 0.19569 1.6041 0.58594 0.41192 0.38302 0.61719 0.87414 0.61719 1.474 0 0.26016-0.06843 0.52428-0.20573 0.79167-0.13731 0.26739-0.25879 0.4573-0.36719 0.57292-0.10117 0.1084-0.247 0.25104-0.4349 0.42448l-0.05208 0.05469c-0.44083 0.39747-0.66147 0.79263-0.66147 1.1901v0.4349h-1.0208v-0.51042c0-0.3252 0.06842-0.60208 0.20573-0.83334 0.13731-0.23848 0.37968-0.51796 0.72656-0.83594 0.19512-0.18067 0.33196-0.31432 0.41146-0.40104 0.08672-0.093949 0.17051-0.21861 0.25-0.3776 0.08672-0.16621 0.13021-0.33698 0.13021-0.51042 0-0.33243-0.10872-0.59974-0.32552-0.80209-0.20957-0.20235-0.50182-0.3047-0.87761-0.3047-0.6215 0-1.0474 0.3479-1.2786 1.0417l-0.9323-0.39063c0.15176-0.41192 0.41268-0.78158 0.78126-1.1068 0.37579-0.33243 0.85155-0.4974 1.4297-0.4974zm-0.0104 6.526c0.20957 0 0.38352 0.07161 0.52083 0.21615 0.14453 0.14454 0.21615 0.31848 0.21615 0.52083s-0.07161 0.3763-0.21615 0.52083c-0.13731 0.14453-0.31127 0.21615-0.52084 0.21615s-0.38672-0.07161-0.53126-0.21615c-0.13731-0.14454-0.20573-0.31848-0.20573-0.52083s0.06842-0.3763 0.20573-0.52083c0.14453-0.14453 0.32168-0.21615 0.53126-0.21615z"
     color="#000000"
     fill="#f2f2f2"
     stroke-linecap="round"
     stroke-linejoin="round"
     style="-inkscape-stroke:none"
     id="path6" />
  <path
     style="fill:#000000;fill-rule:evenodd;stroke-width:0.0197044"
     d="M 4.2948037,14.948207 C 4.1945525,14.902669 4.0633371,14.755225 4.033025,14.654052 3.9626875,14.419287 4.0574514,14.185456 4.2708506,14.067218 l 0.1035336,-0.05737 0.8128079,-0.0061 L 6,13.99762 V 12.994704 11.991788 L 4.3004926,11.98472 C 2.6616294,11.977904 2.5942335,11.976176 2.4117742,11.936289 1.5985209,11.758508 0.94493399,11.315981 0.49803699,10.64055 0.29012282,10.326312 0.15196168,9.9896759 0.06366196,9.5821738 L 0.01970443,9.3793103 V 6.5024631 c 0,-2.7055778 0.0021377,-2.8873624 0.0359072,-3.0534724 C 0.18451429,2.8149276 0.49104804,2.2570856 0.94841261,1.8242368 1.3454306,1.4484998 1.8085862,1.2041254 2.3804077,1.0686744 L 2.5615764,1.0257598 6.2807882,1.0199201 10,1.0140803 V 1.5070402 2 H 6.3834057 C 2.4396189,2 2.659546,1.9940452 2.3273574,2.1098221 1.7858043,2.2985682 1.3263828,2.7511066 1.1208757,3.298228 0.99078564,3.6445669 0.99507389,3.5351925 0.99507389,6.5068751 c 0,2.6236776 9.6936e-4,2.6936616 0.0399604,2.8849937 0.1685315,0.8269982 0.7964689,1.4384552 1.6257359,1.5830672 0.1506525,0.02627 0.7397506,0.02999 4.7506779,0.02999 h 4.5786999 v 0.341855 c 0,0.18802 -0.0057,0.409695 -0.01274,0.492611 l -0.01274,0.150756 H 10.479867 8.9950739 v 1.004257 1.004258 l 1.3054191,0.0056 c 1.160722,0.005 1.31331,0.0092 1.376618,0.03795 l 0.0712,0.03235 0.01077,0.253362 c 0.0072,0.169704 0.02391,0.297294 0.05058,0.386414 l 0.0398,0.133053 -0.06275,0.04786 c -0.03451,0.02632 -0.08767,0.05734 -0.118132,0.06892 -0.03858,0.01467 -1.153616,0.02093 -3.6747899,0.02062 C 4.52576,14.984377 4.371054,14.982892 4.2948017,14.948212 Z M 8.0098522,12.995074 V 11.990148 H 7.4975369 6.9852217 V 12.995074 14 h 0.5123152 0.5123153 z"
     id="path7" />
  <path
     style="fill:#000000;fill-rule:evenodd;stroke-width:0.0197044"
     d="m 11.012491,7.0947399 c -0.0046,-0.012043 -0.006,-1.2098374 -0.0031,-2.6617661 l 0.0053,-2.6398704 0.04442,-0.1166359 c 0.119076,-0.3126566 0.358311,-0.5364362 0.67344,-0.629935 0.09472,-0.028104 0.297773,-0.031754 1.766398,-0.031754 1.60099,0 1.663778,0.00138 1.784601,0.039178 0.336474,0.1052674 0.589567,0.3674231 0.676338,0.7005569 0.02635,0.1011709 0.03017,0.4437833 0.03017,2.7063236 V 7.0513253 L 15.827586,6.8932731 C 15.63176,6.702879 15.408563,6.5359328 15.17678,6.4064857 L 15.004926,6.3105082 V 5.6527911 4.9950739 h -1.507389 -1.507389 l -2e-5,0.6748768 -2e-5,0.6748769 -0.103429,0.057255 c -0.208354,0.1153385 -0.423932,0.281678 -0.642242,0.4955519 -0.12295,0.1204506 -0.227325,0.2091482 -0.231946,0.1971054 z M 15.004926,3.0049261 V 2 h -1.507389 -1.507389 v 1.0049261 1.0049261 h 1.507389 1.507389 z"
     id="path8" />
  <path
     style="fill:#000000;fill-rule:evenodd;stroke-width:0.0197044"
     d="m 13.000042,12.093596 c 0.0099,-0.482571 0.02546,-0.566462 0.152252,-0.82266 0.124328,-0.251231 0.251671,-0.403193 0.759556,-0.906404 0.488305,-0.4838112 0.569653,-0.5835783 0.689955,-0.846173 0.110666,-0.2415608 0.134203,-0.4623036 0.07786,-0.7301817 -0.08796,-0.4181912 -0.405793,-0.7186642 -0.855851,-0.8091096 -0.21593,-0.043394 -0.5706,-0.030634 -0.730659,0.026288 -0.375555,0.1335577 -0.641403,0.4003838 -0.810168,0.8131508 -0.03528,0.086275 -0.0701,0.1568635 -0.07738,0.1568635 -0.02015,0 -0.873297,-0.3580397 -0.891229,-0.3740233 -0.02537,-0.022615 0.115472,-0.3088594 0.255374,-0.5190088 0.144006,-0.2163141 0.441268,-0.5379021 0.624604,-0.6757185 0.158817,-0.1193845 0.477421,-0.271787 0.672638,-0.3217522 0.264397,-0.067671 0.582518,-0.091379 0.871935,-0.064979 0.589812,0.053801 1.028977,0.2467112 1.399499,0.6147518 0.35072,0.3483717 0.538353,0.7678386 0.569235,1.2725601 0.02118,0.3462098 -0.03851,0.6137946 -0.215404,0.9656513 -0.1742,0.3464886 -0.302092,0.5106806 -0.676848,0.8689626 -0.400507,0.382899 -0.569349,0.58325 -0.678389,0.804984 C 14.022777,11.779122 14,11.892809 14,12.230741 v 0.291426 h -0.504393 -0.504392 z"
     id="path9" />
  <path
     style="fill:#000000;fill-rule:evenodd;stroke-width:0.0197044"
     d="m 13.239787,14.95045 c -0.632417,-0.225722 -0.63134,-1.157887 0.0016,-1.37779 0.125441,-0.04358 0.380651,-0.043 0.499646,0.0011 0.206537,0.07662 0.406442,0.298354 0.456284,0.506116 0.03556,0.148221 0.01605,0.341849 -0.04905,0.486919 -0.06456,0.143859 -0.22031,0.301349 -0.360065,0.364087 -0.131568,0.05906 -0.409867,0.06897 -0.548405,0.01952 z"
     id="path10" />
</svg>
