<?xml version="1.0" encoding="UTF-8" standalone="no"?>
<svg
   width="16"
   height="16"
   version="1.1"
   id="svg3"
   sodipodi:docname="network-receive.svg"
   inkscape:version="1.4.2 (ebf0e940d0, 2025-05-08)"
   xmlns:inkscape="http://www.inkscape.org/namespaces/inkscape"
   xmlns:sodipodi="http://sodipodi.sourceforge.net/DTD/sodipodi-0.dtd"
   xmlns="http://www.w3.org/2000/svg"
   xmlns:svg="http://www.w3.org/2000/svg">
  <defs
     id="defs3" />
  <sodipodi:namedview
     id="namedview3"
     pagecolor="#ffffff"
     bordercolor="#000000"
     borderopacity="0.25"
     inkscape:showpageshadow="2"
     inkscape:pageopacity="0.0"
     inkscape:pagecheckerboard="0"
     inkscape:deskcolor="#d1d1d1"
     inkscape:zoom="50.75"
     inkscape:cx="7.9901478"
     inkscape:cy="8"
     inkscape:window-width="1876"
     inkscape:window-height="996"
     inkscape:window-x="0"
     inkscape:window-y="0"
     inkscape:window-maximized="1"
     inkscape:current-layer="svg3" />
  <path
     d="m3 1c-1.662 0-3 1.338-3 3v5c0 1.662 1.338 3 3 3h3v2h-1.5c-0.277 0-0.5 0.223-0.5 0.5s0.223 0.5 0.5 0.5h7c0.277 0 0.5-0.223 0.5-0.5s-0.223-0.5-0.5-0.5h-2.5v-2h3v-1h-9c-1.108 0-2-0.892-2-2v-5c0-1.108 0.892-2 2-2h7v-1zm9 0c-0.554 0-1 0.446-1 1v5c0 0.554 0.446 1 1 1h1v6.5c0 0.277 0.223 0.5 0.5 0.5s0.5-0.223 0.5-0.5v-6.5h1c0.554 0 1-0.446 1-1v-5c0-0.554-0.446-1-1-1zm0 1h3v2h-3zm0 3h3v2h-3zm-5 7h1v2h-1z"
     fill="#f2f2f2"
     id="path1" />
  <circle
     cx="3.5"
     cy="6.5"
     r=".5"
     fill="#f2f2f2"
     id="circle1" />
  <circle
     cx="6.5"
     cy="6.5"
     r=".5"
     fill="#f2f2f2"
     opacity=".65"
     id="circle2" />
  <circle
     cx="9.5"
     cy="6.5"
     r=".5"
     fill="#f2f2f2"
     opacity=".35"
     id="circle3" />
  <path
     style="fill:#000000;fill-rule:evenodd;stroke-width:0.0197044"
     d="M 4.2948037,14.948207 C 4.1945525,14.902669 4.0633371,14.755225 4.033025,14.654052 3.9626875,14.419287 4.0574514,14.185456 4.2708506,14.067218 l 0.1035336,-0.05737 0.8128079,-0.0061 L 6,13.99762 V 12.994704 11.991788 L 4.3004926,11.98472 C 2.6616294,11.977904 2.5942335,11.976176 2.4117742,11.936289 1.5985209,11.758508 0.94493399,11.315981 0.49803699,10.64055 0.29012282,10.326312 0.15196168,9.9896759 0.06366196,9.5821738 L 0.01970443,9.3793103 V 6.5024631 c 0,-2.7055778 0.0021377,-2.8873624 0.0359072,-3.0534724 C 0.18451429,2.8149276 0.49104804,2.2570856 0.94841261,1.8242368 1.3454306,1.4484998 1.8085862,1.2041254 2.3804077,1.0686744 L 2.5615764,1.0257598 6.2807882,1.0199201 10,1.0140803 V 1.5070402 2 H 6.3834057 C 2.4396189,2 2.659546,1.9940452 2.3273574,2.1098221 1.7858043,2.2985682 1.3263828,2.7511066 1.1208757,3.298228 0.99078564,3.6445669 0.99507389,3.5351925 0.99507389,6.5068751 c 0,2.6236776 9.6936e-4,2.6936616 0.0399604,2.8849937 0.1685315,0.8269982 0.7964689,1.4384552 1.6257359,1.5830672 0.1506525,0.02627 0.7397506,0.02999 4.7506779,0.02999 h 4.5786999 v 0.492611 0.492611 H 10.492611 8.9950739 v 1.004138 1.004137 l 1.3152711,0.0057 1.315271,0.0057 0.103533,0.05737 c 0.2134,0.118238 0.308164,0.352069 0.237826,0.586834 -0.03042,0.101531 -0.152949,0.238708 -0.259132,0.290111 l -0.08482,0.04106 -3.624321,-4.33e-4 C 4.5259068,14.98435 4.3710541,14.982865 4.2948007,14.948185 Z M 8.0098522,12.995074 V 11.990148 H 7.4975369 6.9852217 V 12.995074 14 h 0.5123152 0.5123153 z"
     id="path3" />
  <path
     style="fill:#000000;fill-rule:evenodd;stroke-width:0.0197044"
     d="m 13.274254,14.933924 c -0.109149,-0.05439 -0.179931,-0.131444 -0.229309,-0.249623 -0.02668,-0.06385 -0.03017,-0.454921 -0.03017,-3.383175 V 7.9901478 H 12.44749 c -0.616961,0 -0.702069,-0.010654 -0.910037,-0.1139244 C 11.389809,7.8029086 11.201968,7.6144713 11.125592,7.4630546 10.998081,7.2102627 11.003553,7.3527468 11.009437,4.4384889 l 0.0053,-2.6453855 0.04442,-0.1166359 c 0.119076,-0.3126566 0.358311,-0.5364362 0.67344,-0.629935 0.09472,-0.028104 0.297773,-0.031754 1.766398,-0.031754 1.60099,0 1.663778,0.00138 1.784601,0.039178 0.336474,0.1052674 0.589567,0.3674231 0.676338,0.7005569 0.02636,0.1012003 0.03017,0.4465489 0.03017,2.7334214 0,2.9064695 0.0057,2.7756711 -0.130417,3.0028374 -0.138791,0.2316631 -0.356255,0.4003943 -0.597047,0.463252 -0.107446,0.028048 -0.226758,0.034046 -0.695901,0.034988 l -0.566222,0.00114 -0.0052,3.3152708 -0.0052,3.315271 -0.0539,0.102226 c -0.126599,0.240107 -0.417517,0.332836 -0.661994,0.211008 z M 15.004926,6 V 4.9950739 H 13.497537 11.990148 V 6 7.0049261 h 1.507389 1.507389 z m 0,-2.9950739 V 2 h -1.507389 -1.507389 v 1.0049261 1.0049261 h 1.507389 1.507389 z"
     id="path4" />
  <path
     style="fill:#4d4d4d;fill-rule:evenodd;stroke-width:0.0197044"
     d="M 3.3228981,6.9582435 C 3.2278558,6.9238492 3.1098356,6.8183831 3.0594061,6.7227799 2.9992524,6.6087414 2.998558,6.3971498 3.0579718,6.2857143 3.1527092,6.1080266 3.3104055,6.0132984 3.5099955,6.0141837 3.7810716,6.0153861 3.9905429,6.2317194 3.9899553,6.5098665 3.9895837,6.6857458 3.8509245,6.887494 3.6818689,6.95813 3.6032143,6.990994 3.4135637,6.9910539 3.3228981,6.9582435 Z"
     id="path5" />
  <path
     style="fill:#999999;fill-rule:evenodd;stroke-width:0.0197044"
     d="M 6.4236453,6.9852238 C 6.1068447,6.9400087 5.9127389,6.5725868 6.0541005,6.2857143 6.2312474,5.9262209 6.7346888,5.9153619 6.9316226,6.2667865 c 0.048577,0.086685 0.054151,0.1146432 0.049261,0.2470752 -0.00466,0.1262629 -0.014726,0.164229 -0.065148,0.2457845 C 6.815731,6.9213977 6.6164633,7.0127435 6.4236453,6.9852238 Z"
     id="path6" />
  <path
     style="fill:#999999;fill-rule:evenodd;stroke-width:0.0197044"
     d="M 9.286265,6.9459858 C 9.1727053,6.8841152 9.0614976,6.7565859 9.0333082,6.6559035 8.9761304,6.4516843 9.0155568,6.293751 9.1596996,6.1496082 9.4230536,5.8862541 9.8668224,6.0051723 9.9720985,6.3673094 10.031426,6.5713895 9.9479665,6.7913297 9.7644204,6.9146007 9.6892673,6.9650741 9.656046,6.9738372 9.5185657,6.979452 9.3878977,6.9847885 9.3465527,6.9788322 9.286265,6.9459858 Z"
     id="path7" />
</svg>
