<?xml version="1.0" encoding="UTF-8" standalone="no"?>
<svg
   width="16"
   height="16"
   version="1.1"
   id="svg2"
   sodipodi:docname="network-error.svg"
   inkscape:version="1.4.2 (ebf0e940d0, 2025-05-08)"
   xmlns:inkscape="http://www.inkscape.org/namespaces/inkscape"
   xmlns:sodipodi="http://sodipodi.sourceforge.net/DTD/sodipodi-0.dtd"
   xmlns="http://www.w3.org/2000/svg"
   xmlns:svg="http://www.w3.org/2000/svg">
  <defs
     id="defs2" />
  <sodipodi:namedview
     id="namedview2"
     pagecolor="#ffffff"
     bordercolor="#000000"
     borderopacity="0.25"
     inkscape:showpageshadow="2"
     inkscape:pageopacity="0.0"
     inkscape:pagecheckerboard="0"
     inkscape:deskcolor="#d1d1d1"
     inkscape:zoom="26.630859"
     inkscape:cx="11.1337"
     inkscape:cy="7.5476348"
     inkscape:window-width="1876"
     inkscape:window-height="996"
     inkscape:window-x="0"
     inkscape:window-y="0"
     inkscape:window-maximized="1"
     inkscape:current-layer="svg2" />
  <path
     d="m3 1c-1.662 0-3 1.338-3 3v5c0 1.662 1.338 3 3 3h3v2h-1.5c-0.277 0-0.5 0.223-0.5 0.5s0.223 0.5 0.5 0.5h5.1855a4.5 4.5 0 0 1-1.6855-3.5 4.5 4.5 0 0 1 0.035156-0.5h-5.0352c-1.108 0-2-0.892-2-2v-5c0-1.108 0.892-2 2-2h7v-1h-7zm9 0c-0.554 0-1 0.446-1 1v2 1 2c0 0.089308 0.015345 0.17358 0.037109 0.25586a4.5 4.5 0 0 1 1.4629-0.25586h-0.5v-2h3v2h-1.5-1a4.5 4.5 0 0 1 2.7734 0.95703c0.41898-0.1192 0.72656-0.49881 0.72656-0.95703v-5c0-0.554-0.446-1-1-1h-3zm0 1h3v2h-3v-2zm-5 10h1v2h-1v-2z"
     fill="#f2f2f2"
     id="path1" />
  <path
     class="error"
     d="m12.5 8c-1.933 0-3.5 1.567-3.5 3.5s1.567 3.5 3.5 3.5 3.5-1.567 3.5-3.5-1.567-3.5-3.5-3.5zm0 1c0.277 0 0.5 0.223 0.5 0.5v2c0 0.277-0.223 0.5-0.5 0.5s-0.5-0.223-0.5-0.5v-2c0-0.277 0.223-0.5 0.5-0.5zm-0.01172 4a0.5 0.5 0 0 1 0.01172 0 0.5 0.5 0 0 1 0.5 0.5 0.5 0.5 0 0 1-0.5 0.5 0.5 0.5 0 0 1-0.5-0.5 0.5 0.5 0 0 1 0.48828-0.5z"
     fill="#ff5555"
     id="path2" />
  <path
     style="fill:#ff0000;fill-rule:evenodd;stroke-width:0.0375504"
     d="M 11.772642,14.901529 C 11.123276,14.7624 10.467204,14.39256 10.003157,13.90404 9.673564,13.557064 9.5328423,13.354006 9.346698,12.956784 9.116736,12.466058 9.0348305,12.072663 9.0374914,11.471654 c 0.00248,-0.56012 0.062802,-0.859116 0.272962,-1.352985 0.5555774,-1.305588 1.9465376,-2.1696766 3.3628136,-2.0890383 2.20798,0.1257154 3.741723,2.2159973 3.190616,4.3483723 -0.322978,1.249689 -1.392401,2.267752 -2.653939,2.52648 -0.363234,0.0745 -1.082716,0.07302 -1.437302,-0.003 z m 1.014184,-0.967464 c 0.14906,-0.09767 0.220063,-0.239396 0.220063,-0.439266 0,-0.54748 -0.707347,-0.707388 -0.964557,-0.218056 -0.235558,0.448139 0.317929,0.936818 0.744494,0.657322 z m -0.01587,-1.996382 c 0.05373,-0.02703 0.129768,-0.09647 0.168977,-0.154319 0.06622,-0.09771 0.07129,-0.187897 0.07129,-1.269246 0,-1.0741257 -0.0055,-1.1730987 -0.0708,-1.2810122 -0.09587,-0.1583632 -0.246068,-0.2398079 -0.441921,-0.2396394 -0.205936,1.771e-4 -0.375758,0.1017059 -0.457205,0.2733419 -0.05412,0.1140444 -0.06271,0.2819964 -0.06271,1.2260277 0,1.195378 0.01231,1.277757 0.212158,1.420063 0.175472,0.124948 0.364985,0.133043 0.580212,0.02478 z"
     id="path3" />
  <path
     style="fill:#000000;fill-rule:evenodd;stroke-width:0.0375504"
     d="M 4.370699,14.960798 C 4.0039665,14.854399 3.9027633,14.392222 4.1908167,14.139308 l 0.1300949,-0.114225 h 0.8435781 0.8435778 v -1.010919 -1.010919 l -1.736707,-0.01539 C 2.2939743,11.970341 2.3242874,11.974238 1.653142,11.651316 1.3027657,11.482732 1.2202064,11.422473 0.89754666,11.099813 0.57501355,10.77728 0.51454618,10.694457 0.34590461,10.344218 0.00155843,9.6290712 0.01870999,9.8311142 0.01924574,6.496223 0.01971597,3.5691627 0.01977053,3.567098 0.10459372,3.2668867 0.41719363,2.1605143 1.1971372,1.3825662 2.2684196,1.108597 2.5567252,1.0348658 2.6743636,1.0326366 6.276927,1.0326366 H 9.9884122 V 1.5006204 1.9686041 L 6.3178585,1.9796671 2.6473047,1.99073 2.4005185,2.0743854 C 1.8959934,2.2454091 1.4053828,2.6708558 1.1947828,3.119973 0.98106676,3.5757355 0.97764874,3.6284892 0.97724665,6.4774477 c -2.3026e-4,1.6313387 0.0143065,2.701261 0.0387743,2.8538321 0.059136,0.3687463 0.2885638,0.8104212 0.5641008,1.0859582 0.2654059,0.265406 0.707134,0.499268 1.0646919,0.563675 0.1438626,0.02592 1.1317773,0.04014 2.7881188,0.04014 h 2.5653074 v 0.488155 0.488156 H 7.4913091 6.9843784 v 1.013861 1.013862 h 0.5069307 0.5069307 l 0.00264,-1.004474 0.00264,-1.004474 0.069074,0.327593 c 0.1949524,0.924597 0.5813846,1.654245 1.2234559,2.310089 l 0.3402781,0.347576 -2.5745282,-0.0034 C 5.6458129,14.996144 4.434816,14.9794 4.370699,14.960798 Z"
     id="path4" />
  <path
     style="fill:#000000;fill-rule:evenodd;stroke-width:0.0375504"
     d="M 15.067211,7.7939227 C 14.632316,7.4762311 14.004713,7.2094155 13.386725,7.0794895 l -0.337953,-0.071052 0.985698,-0.00264 0.985699,-0.00264 V 5.9892923 4.9754309 h -1.520792 -1.520792 v 1.0326366 1.0326366 h -0.1085 c -0.05968,0 -0.266476,0.041032 -0.459559,0.091181 -0.193082,0.05015 -0.359702,0.082545 -0.370268,0.071989 -0.04155,-0.041516 -0.04023,-5.2097541 0.0014,-5.4102169 0.04857,-0.2339732 0.21231,-0.4659192 0.443775,-0.6286393 l 0.161601,-0.1136062 1.771063,-0.011454 c 1.177049,-0.00761 1.817093,0.00198 1.908301,0.028599 0.201853,0.05891 0.50115,0.3446741 0.582902,0.5565458 0.06393,0.1656892 0.06842,0.3558515 0.06842,2.8997231 V 7.2472312 L 15.87817,7.4349833 C 15.776618,7.6264948 15.675576,7.7369197 15.508324,7.8391586 15.327541,7.9496687 15.27272,7.9440471 15.067211,7.7939227 Z M 15.020169,2.9848326 V 1.9705452 l -1.511405,0.00981 -1.511404,0.00981 -0.01,1.0044737 -0.01,1.0044738 h 1.521405 1.521406 z"
     id="path5" />
</svg>
