<?xml version="1.0" encoding="UTF-8" standalone="no"?>
<svg
   width="16"
   height="16"
   version="1.1"
   id="svg5"
   sodipodi:docname="network-wireless-acquiring.svg"
   inkscape:version="1.4.2 (ebf0e940d0, 2025-05-08)"
   xmlns:inkscape="http://www.inkscape.org/namespaces/inkscape"
   xmlns:sodipodi="http://sodipodi.sourceforge.net/DTD/sodipodi-0.dtd"
   xmlns="http://www.w3.org/2000/svg"
   xmlns:svg="http://www.w3.org/2000/svg">
  <defs
     id="defs5" />
  <sodipodi:namedview
     id="namedview5"
     pagecolor="#ffffff"
     bordercolor="#000000"
     borderopacity="0.25"
     inkscape:showpageshadow="2"
     inkscape:pageopacity="0.0"
     inkscape:pagecheckerboard="0"
     inkscape:deskcolor="#d1d1d1"
     inkscape:zoom="51.125"
     inkscape:cx="7.99022"
     inkscape:cy="8"
     inkscape:window-width="1876"
     inkscape:window-height="1002"
     inkscape:window-x="0"
     inkscape:window-y="0"
     inkscape:window-maximized="1"
     inkscape:current-layer="svg5" />
  <g
     fill="#f2f2f2"
     fill-rule="evenodd"
     id="g1">
    <path
       d="m8 3c-2.8405-3e-7 -5.4324 1.0071-7.4863 2.6582a0.5 0.5 0 0 0-0.095703 0.072266 0.5 0.5 0 0 0-0.1543 0.35938 0.5 0.5 0 0 0 0.5 0.5 0.5 0.5 0 0 0 0.31836-0.11328c1.891-1.5388 4.2898-2.4766 6.918-2.4766 2.6282-3e-7 5.0269 0.93776 6.918 2.4766a0.5 0.5 0 0 0 0.31836 0.11328 0.5 0.5 0 0 0 0.5-0.5 0.5 0.5 0 0 0-0.1543-0.35938 0.5 0.5 0 0 0-0.0957-0.072266c-2.0539-1.6511-4.6459-2.6582-7.4863-2.6582zm0 3c-0.015127 0-0.029814 0.00188-0.044922 0.00195a2 2 0 0 1 0.089844 0c-0.015108-7.32e-5 -0.029795-0.00195-0.044922-0.00195zm-0.074219 0.00391c-1.2079 0.01008-2.3527 0.26471-3.3984 0.71094a2.0001 2.0001 0 0 1 0.43164 0.89844c0.38621-0.16129 0.78701-0.29141 1.2012-0.39062a2 2 0 0 1 0.36523-0.57422 2 2 0 0 1 1.4004-0.64453zm0.17969 0a2 2 0 0 1 1.2402 0.51758l0.019531 0.017578a2 2 0 0 1 0.47266 0.68359c0.41482 0.099265 0.81634 0.2291 1.2031 0.39062a2.0001 2.0001 0 0 1 0.42969-0.90039c-1.036-0.44174-2.1698-0.69482-3.3652-0.70898zm-1.6758 3.2324c-0.73521 0.20826-1.4193 0.53889-2.0156 0.98828-0.11034 0.09497-0.16795 0.23918-0.16797 0.38477 0 0.27614 0.22386 0.5 0.5 0.5 0.12436-3.26e-4 0.24413-0.04698 0.33594-0.13086 0.82215-0.60306 1.8199-0.97852 2.918-0.97852 1.0981-2e-7 2.0958 0.37546 2.918 0.97852 0.09181 0.08388 0.21158 0.13053 0.33594 0.13086 0.27614 0 0.5-0.22386 0.5-0.5-1.6e-5 -0.14559-0.05762-0.2898-0.16797-0.38477-0.59629-0.44939-1.2804-0.78002-2.0156-0.98828a2 2 0 0 1-0.10547 0.125 2 2 0 0 1-2.8203 0.10938 2 2 0 0 1-0.21484-0.23438z"
       style="paint-order:stroke fill markers"
       id="path1" />
    <circle
       cx="8"
       cy="13"
       r="1"
       style="paint-order:stroke fill markers"
       id="circle1" />
  </g>
  <g
     fill="#f2f2f2"
     id="g5">
    <g
       fill-rule="evenodd"
       id="g4">
      <path
         d="m3.6827 7.2693a1 1 0 0 1 0.050233 1.4111 1 1 0 0 1-1.4109 0.054706 1 1 0 0 1-0.059179-1.4107 1 1 0 0 1 1.4105-0.063651"
         opacity=".35"
         style="paint-order:normal"
         id="path2" />
      <path
         d="m8.6827 7.2693a1 1 0 0 1 0.050233 1.4111 1 1 0 0 1-1.4109 0.054706 1 1 0 0 1-0.059179-1.4107 1 1 0 0 1 1.4105-0.063651"
         opacity=".35"
         style="paint-order:normal"
         id="path3" />
      <path
         d="m13.683 7.2693a1 1 0 0 1 0.05023 1.4111 1 1 0 0 1-1.4109 0.054706 1 1 0 0 1-0.05918-1.4107 1 1 0 0 1 1.4105-0.063651"
         opacity=".35"
         style="paint-order:normal"
         id="path4" />
    </g>
  </g>
  <path
     style="fill:#000000;fill-rule:evenodd;stroke-width:0.0195599"
     d="M 0.56723716,6.5358856 C 0.30471146,6.4133747 0.19829835,6.1082656 0.33225532,5.8621426 0.37877595,5.7766689 0.43998942,5.7211339 0.73149749,5.4999366 1.6901551,4.7725038 2.5660006,4.2732175 3.6288092,3.8482891 c 2.797246,-1.118385 5.964471,-1.1174399 8.7545008,0.00261 1.120315,0.4497481 2.039121,0.9875998 3.120377,1.8266104 C 15.698897,5.828987 15.771,6.043531 15.698382,6.2568354 15.64072,6.4262105 15.426269,6.5813215 15.249213,6.581716 15.120623,6.5820025 15.029474,6.5475077 14.902181,6.4503838 14.145588,5.8731049 13.734351,5.6019102 13.114914,5.2717526 11.867127,4.6066856 10.575491,4.2135065 9.0855746,4.0452049 8.7018682,4.0018612 7.394194,3.9955174 7.0122249,4.0351466 5.5007223,4.1919647 4.1800966,4.5871714 2.8948655,5.267296 2.2768229,5.5943548 1.860672,5.8683282 1.0978186,6.4503838 0.91234703,6.5918983 0.7450398,6.6188595 0.56723716,6.5358856 Z"
     id="path5" />
  <path
     style="fill:#000000;fill-rule:evenodd;stroke-width:0.0195599"
     d="M 4.9196502,7.4395468 C 4.8631878,7.2441444 4.7591437,7.0262773 4.638239,6.8502752 L 4.5471426,6.7176654 4.6403195,6.6771804 C 5.0131788,6.5151747 5.6446446,6.3176364 6.1266909,6.2122063 6.4647566,6.1382666 6.9975617,6.0613875 7.3545232,6.0350407 7.6971509,6.0097518 7.6983482,6.0098862 7.5207824,6.0537 7.1827065,6.1371193 6.8373719,6.331648 6.5866363,6.5799091 6.443476,6.7216567 6.2589707,6.9804919 6.1900897,7.1362089 c -0.022182,0.050146 -0.052576,0.091175 -0.067542,0.091175 -0.060345,0 -0.6455265,0.1790121 -0.8898057,0.2721994 -0.1433667,0.054691 -0.2620941,0.099439 -0.2638387,0.099439 -0.00174,0 -0.023908,-0.071764 -0.049253,-0.1594755 z"
     id="path6" />
  <path
     style="fill:#000000;fill-rule:evenodd;stroke-width:0.0195599"
     d="M 4.5818674,11.073537 C 4.272701,10.958152 4.1596672,10.590817 4.3475915,10.312192 4.4163258,10.210284 4.900773,9.8900666 5.2659941,9.7051329 5.6117022,9.5300799 5.8179776,9.4432167 6.1594936,9.3288775 L 6.4151049,9.243299 6.5630807,9.3942657 c 0.3091335,0.3153819 0.6953144,0.5169238 1.1321641,0.5908592 l 0.089596,0.015164 -0.088533,0.0023 c -0.2971189,0.0077 -0.8063914,0.108328 -1.1893796,0.234962 -0.4688817,0.155035 -0.8147744,0.324893 -1.2333794,0.605679 -0.1225307,0.08219 -0.2575117,0.170313 -0.2999579,0.195831 -0.096046,0.05774 -0.284861,0.07436 -0.3917242,0.03448 z"
     id="path7" />
  <path
     style="fill:#000000;fill-rule:evenodd;stroke-width:0.0195599"
     d="M 7.7801987,13.965494 C 7.3402465,13.869911 7.013224,13.461447 7.0124571,13.006555 7.0118686,12.657496 7.1798556,12.35308 7.4801834,12.158969 c 0.2166794,-0.140047 0.5380695,-0.185097 0.7936552,-0.111248 0.7148722,0.206555 0.9539327,1.119923 0.4303149,1.644085 -0.2499752,0.250236 -0.5808211,0.348237 -0.9239548,0.273688 z"
     id="path8" />
  <path
     style="fill:#000000;fill-rule:evenodd;stroke-width:0.0195599"
     d="m 11.095102,11.073464 c -0.04048,-0.01511 -0.0899,-0.03946 -0.109823,-0.05413 C 10.677166,10.79248 10.289088,10.56181 9.9853301,10.424972 9.4777055,10.196297 8.7466967,10.013688 8.2939117,10.00245 l -0.098313,-0.0024 0.0978,-0.014487 C 8.7182277,9.922634 9.1189566,9.7157641 9.437895,9.394734 l 0.1495577,-0.1505385 0.2543326,0.08515 c 0.5291577,0.1771614 1.0186707,0.4148852 1.4680957,0.7129555 0.320787,0.212754 0.383397,0.280371 0.41959,0.453149 0.06399,0.30546 -0.135606,0.578093 -0.437472,0.597564 -0.07678,0.005 -0.15106,-0.0024 -0.196897,-0.01951 z"
     id="path9" />
  <path
     style="fill:#000000;fill-rule:evenodd;stroke-width:0.0195599"
     d="M 7.7359413,8.9597463 C 7.499668,8.8938974 7.2443658,8.6916088 7.1323918,8.4815239 6.9179023,8.0791004 6.9907166,7.5993186 7.3132895,7.2895682 7.5066407,7.1039028 7.7314452,7.0122249 7.9933668,7.0122249 c 0.2783348,0 0.494576,0.086477 0.6932201,0.2772246 0.4076511,0.3914467 0.4049926,1.0408623 -0.00583,1.4251707 -0.1391023,0.1301234 -0.2631092,0.2004421 -0.4302547,0.2439779 -0.1334904,0.03477 -0.3918492,0.035346 -0.5145565,0.00115 z"
     id="path10" />
  <path
     style="fill:#000000;fill-rule:evenodd;stroke-width:0.0195599"
     d="M 2.7188264,8.9514484 C 2.5488996,8.8993729 2.4410206,8.8358224 2.3156415,8.7139364 2.1286151,8.5321205 2.0347532,8.3385874 2.0126778,8.0892579 1.9862956,7.7912859 2.1076805,7.4711322 2.3198264,7.2791512 2.5215533,7.0965988 2.7392991,7.0128608 3.0133169,7.0124571 3.565998,7.0116428 4.0204786,7.4938604 3.9885747,8.0472351 3.9649704,8.4566558 3.7261011,8.7836875 3.3447433,8.9286937 3.1810989,8.9909174 2.8829817,9.0017551 2.7188264,8.9514484 Z"
     id="path11" />
  <path
     style="fill:#000000;fill-rule:evenodd;stroke-width:0.0195599"
     d="M 10.816626,7.5181129 C 10.612759,7.4376466 10.049558,7.2606391 9.9207929,7.2365629 9.8518551,7.223673 9.8410376,7.2118656 9.7713434,7.0734363 9.5223523,6.5788811 9.0583769,6.2071507 8.5085575,6.0617101 L 8.3325183,6.0151435 8.5085575,6.0258185 C 9.254143,6.071031 10.037664,6.2184405 10.7209,6.442043 c 0.240727,0.078782 0.705446,0.2496287 0.727488,0.2674489 0.0032,0.0026 -0.03449,0.062433 -0.0838,0.1329639 -0.115256,0.1648754 -0.252684,0.4560286 -0.29479,0.6245369 -0.01814,0.072616 -0.03852,0.1311954 -0.04528,0.1301762 -0.0068,-0.00102 -0.100312,-0.036594 -0.207892,-0.079056 z"
     id="path12" />
  <path
     style="fill:#000000;fill-rule:evenodd;stroke-width:0.0195599"
     d="M 12.811736,8.9748149 C 12.53433,8.9150908 12.280695,8.7371183 12.145029,8.5069945 11.954023,8.183004 11.968052,7.7594136 12.180262,7.4430979 12.568288,6.8647145 13.441304,6.8697495 13.82818,7.452602 13.947586,7.6324956 13.981638,7.7535498 13.982159,8 c 5.37e-4,0.2537834 -0.03674,0.3744451 -0.176996,0.5728758 -0.191758,0.2713003 -0.477061,0.4169875 -0.807608,0.4123981 -0.08069,-0.00112 -0.164303,-0.00583 -0.185819,-0.010459 z"
     id="path13" />
</svg>
