<?xml version="1.0" encoding="UTF-8" standalone="no"?>
<svg
   width="16"
   height="16"
   version="1.1"
   id="svg2"
   sodipodi:docname="nm-no-connection.svg"
   inkscape:version="1.4.2 (ebf0e940d0, 2025-05-08)"
   xmlns:inkscape="http://www.inkscape.org/namespaces/inkscape"
   xmlns:sodipodi="http://sodipodi.sourceforge.net/DTD/sodipodi-0.dtd"
   xmlns="http://www.w3.org/2000/svg"
   xmlns:svg="http://www.w3.org/2000/svg">
  <defs
     id="defs2" />
  <sodipodi:namedview
     id="namedview2"
     pagecolor="#ffffff"
     bordercolor="#000000"
     borderopacity="0.25"
     inkscape:showpageshadow="2"
     inkscape:pageopacity="0.0"
     inkscape:pagecheckerboard="0"
     inkscape:deskcolor="#d1d1d1"
     inkscape:zoom="50.75"
     inkscape:cx="7.9901478"
     inkscape:cy="8"
     inkscape:window-width="1876"
     inkscape:window-height="996"
     inkscape:window-x="0"
     inkscape:window-y="0"
     inkscape:window-maximized="1"
     inkscape:current-layer="svg2" />
  <path
     d="m12.5 8c-1.933 0-3.5 1.567-3.5 3.5s1.567 3.5 3.5 3.5 3.5-1.567 3.5-3.5-1.567-3.5-3.5-3.5zm-1.4141 1.5859c0.12781 0 0.25558 0.04855 0.35352 0.14648l1.0605 1.0605 1.0605-1.0605c0.19587-0.19587 0.51116-0.19587 0.70703 0s0.19587 0.51116 0 0.70703l-1.0605 1.0605 1.0605 1.0605c0.19587 0.19587 0.19587 0.51116 0 0.70703s-0.51116 0.19587-0.70703 0l-1.0605-1.0605-1.0605 1.0605c-0.19587 0.19587-0.51116 0.19587-0.70703 0s-0.19587-0.51116 0-0.70703l1.0605-1.0605-1.0605-1.0605c-0.19587-0.19587-0.19587-0.51116 0-0.70703 0.09793-0.09793 0.22571-0.14648 0.35352-0.14648z"
     fill="#f2f2f2"
     id="path1" />
  <path
     d="m3 1c-1.662 0-3 1.338-3 3v5c0 1.662 1.338 3 3 3h3v2h-1.5c-0.277 0-0.5 0.223-0.5 0.5s0.223 0.5 0.5 0.5h5.1855a4.5 4.5 0 0 1-1.6855-3.5 4.5 4.5 0 0 1 0.035156-0.5h-5.0352c-1.108 0-2-0.892-2-2v-5c0-1.108 0.892-2 2-2h7v-1h-7zm9 0c-0.554 0-1 0.446-1 1v2 1 2c0 0.089308 0.015345 0.17358 0.037109 0.25586a4.5 4.5 0 0 1 1.4629-0.25586h-0.5v-2h3v2h-1.5-1a4.5 4.5 0 0 1 2.7734 0.95703c0.41898-0.1192 0.72656-0.49881 0.72656-0.95703v-5c0-0.554-0.446-1-1-1h-3zm0 1h3v2h-3v-2zm-5 10h1v2h-1v-2z"
     fill="#f2f2f2"
     id="path2" />
  <path
     style="fill:#000000;fill-rule:evenodd;stroke-width:0.0197044"
     d="M 4.2948037,14.948207 C 4.1945525,14.902669 4.0633371,14.755225 4.033025,14.654052 3.9626875,14.419287 4.0574514,14.185456 4.2708506,14.067218 l 0.1035336,-0.05737 0.8128079,-0.0061 L 6,13.99762 V 12.994704 11.991788 L 4.3004926,11.98472 C 2.6616294,11.977904 2.5942335,11.976176 2.4117742,11.936289 1.5985209,11.758508 0.94493399,11.315981 0.49803699,10.64055 0.29012282,10.326312 0.15196168,9.9896759 0.06366196,9.5821738 L 0.01970443,9.3793103 V 6.5024631 c 0,-2.7055778 0.0021377,-2.8873624 0.0359072,-3.0534724 C 0.18451429,2.8149276 0.49104804,2.2570856 0.94841261,1.8242368 1.3454306,1.4484998 1.8085862,1.2041254 2.3804077,1.0686744 L 2.5615764,1.0257598 6.2807882,1.0199201 10,1.0140803 V 1.5070402 2 H 6.3834057 C 3.1578266,2 2.7503909,2.0033802 2.6149328,2.031264 1.8435077,2.1900608 1.270648,2.7321255 1.0481896,3.5137846 l -0.043042,0.15124 -0.005499,2.7631098 c -0.005413,2.719813 -0.004865,2.7662181 0.0349238,2.9614666 0.1652738,0.811013 0.7639515,1.410377 1.5735591,1.575365 0.1911691,0.03896 0.2616627,0.03996 2.8096501,0.03996 h 2.6135612 l -0.01514,0.07389 c -0.029316,0.143074 -0.015897,0.809853 0.021116,1.049261 0.1668373,1.079136 0.7034761,2.065828 1.4986349,2.755466 l 0.1172337,0.101677 -2.6394012,-4.33e-4 c -2.5174812,-4.11e-4 -2.643078,-0.0021 -2.7189825,-0.03658 z M 8.0098522,12.995074 V 11.990148 H 7.4975369 6.9852217 V 12.995074 14 h 0.5123152 0.5123153 z"
     id="path3" />
  <path
     style="fill:#000000;fill-rule:evenodd;stroke-width:0.0197044"
     d="m 15.123153,7.8392869 c -0.544414,-0.4033192 -1.30712,-0.7087645 -2.009238,-0.8046516 -0.170186,-0.023242 -0.09029,-0.025839 0.851602,-0.027679 l 1.039409,-0.00203 V 6 4.9950739 h -1.507389 -1.507389 v 1.0036173 1.0036174 l 0.05419,0.00821 c 0.04581,0.00694 0.0433,0.00866 -0.01626,0.011161 -0.129741,0.00544 -0.504025,0.080774 -0.740108,0.1489715 -0.151671,0.043813 -0.240703,0.060827 -0.253486,0.048441 -0.01295,-0.012545 -0.01971,-0.9461038 -0.01971,-2.7225391 V 1.7931034 L 11.0592,1.6764675 c 0.119076,-0.3126566 0.358311,-0.5364362 0.67344,-0.629935 0.09472,-0.028104 0.297773,-0.031754 1.766398,-0.031754 1.60099,0 1.663778,0.00138 1.784601,0.039178 0.336474,0.1052674 0.589567,0.3674231 0.676338,0.7005569 0.02636,0.1011982 0.03017,0.4463441 0.03017,2.7314153 0,1.8334035 -0.0065,2.6468055 -0.02177,2.719998 -0.05632,0.2700705 -0.261584,0.5408508 -0.501062,0.6609921 -0.185919,0.093272 -0.180355,0.093718 -0.344158,-0.027632 z M 15.004926,3.0049261 V 2 h -1.507389 -1.507389 v 1.0049261 1.0049261 h 1.507389 1.507389 z"
     id="path4" />
  <path
     style="fill:#ff0000;fill-rule:evenodd;stroke-width:0.0197044"
     d="M 11.988738,14.955074 C 10.913107,14.787385 9.9851762,14.146165 9.4517614,13.20197 9.246346,12.838366 9.08785,12.353179 9.0335421,11.92172 8.9988605,11.646187 9.0197534,11.073636 9.0738274,10.817734 9.2603087,9.9352214 9.7577978,9.1697694 10.482759,8.6499093 c 0.21419,-0.1535931 0.661717,-0.3810762 0.911162,-0.4631536 0.652839,-0.2148108 1.372957,-0.2322754 2.043633,-0.049563 1.492007,0.4064675 2.553624,1.8024854 2.552432,3.3564273 -4.34e-4,0.56655 -0.116198,1.052243 -0.374305,1.570419 -0.511388,1.026662 -1.476252,1.722016 -2.623136,1.89043 -0.254711,0.0374 -0.765793,0.03771 -1.003807,6.05e-4 z m -0.680461,-1.588767 c 0.04915,-0.02458 0.299212,-0.25777 0.637391,-0.594396 l 0.556506,-0.553951 0.576499,0.573223 c 0.619843,0.61632 0.63086,0.624589 0.833537,0.625622 0.142116,7.24e-4 0.267579,-0.05378 0.3636,-0.157947 0.106418,-0.11545 0.13808,-0.195301 0.13755,-0.346895 -7.41e-4,-0.212194 -0.02412,-0.243745 -0.635494,-0.857563 l -0.554955,-0.557177 0.554958,-0.556493 c 0.608751,-0.610436 0.634879,-0.645478 0.635299,-0.85206 5.85e-4,-0.2876954 -0.21342,-0.5015976 -0.501838,-0.5015976 -0.206423,0 -0.241342,0.026026 -0.85206,0.6350586 L 12.502777,10.777089 11.9456,10.222134 C 11.330139,9.6091261 11.300686,9.5873757 11.085039,9.5866396 c -0.156833,-5.353e-4 -0.262618,0.04668 -0.373083,0.16652 -0.136828,0.148441 -0.168862,0.3456484 -0.08811,0.5424074 0.01782,0.04342 0.237637,0.278818 0.593397,0.635464 l 0.565092,0.566498 -0.554099,0.556654 c -0.329564,0.331084 -0.570156,0.588781 -0.593725,0.635935 -0.08544,0.170946 -0.06886,0.356984 0.04668,0.523707 0.134014,0.193383 0.410725,0.260668 0.627086,0.152482 z"
     id="path5" />
</svg>
