<?xml version="1.0" encoding="UTF-8" standalone="no"?>
<svg
   width="16"
   height="16"
   version="1.1"
   id="svg6"
   sodipodi:docname="nm-device-wired-secure.svg"
   inkscape:version="1.4.2 (ebf0e940d0, 2025-05-08)"
   xmlns:inkscape="http://www.inkscape.org/namespaces/inkscape"
   xmlns:sodipodi="http://sodipodi.sourceforge.net/DTD/sodipodi-0.dtd"
   xmlns="http://www.w3.org/2000/svg"
   xmlns:svg="http://www.w3.org/2000/svg">
  <sodipodi:namedview
     id="namedview6"
     pagecolor="#ffffff"
     bordercolor="#000000"
     borderopacity="0.25"
     inkscape:showpageshadow="2"
     inkscape:pageopacity="0.0"
     inkscape:pagecheckerboard="0"
     inkscape:deskcolor="#d1d1d1"
     inkscape:zoom="50.75"
     inkscape:cx="7.9901478"
     inkscape:cy="8"
     inkscape:window-width="1876"
     inkscape:window-height="996"
     inkscape:window-x="0"
     inkscape:window-y="0"
     inkscape:window-maximized="1"
     inkscape:current-layer="svg6" />
  <defs
     id="defs1">
    <style
       id="current-color-scheme"
       type="text/css">.ColorScheme-Text{color:#f2f2f2}</style>
  </defs>
  <g
     transform="translate(0 2)"
     fill="#f2f2f2"
     stroke-width="1.5"
     id="g5">
    <g
       transform="matrix(.43738 0 0 .5 -145.4 -266.68)"
       id="g2">
      <g
         transform="matrix(0,-1.0825,-1.0825,0,1464.7,557.15)"
         fill="#f2f2f2"
         stroke-width="1.5"
         id="g1" />
    </g>
    <g
       transform="matrix(-.43738 0 0 -.5 161.4 278.68)"
       id="g4">
      <g
         transform="matrix(0,-1.0825,-1.0825,0,1464.7,557.15)"
         fill="#f2f2f2"
         stroke-width="1.5"
         id="g3" />
    </g>
  </g>
  <path
     d="m13 9c-1.108 0-2 0.892-2 2-0.554 0-1 0.446-1 1v2c0 0.554 0.446 1 1 1h4c0.554 0 1-0.446 1-1v-2c0-0.554-0.446-1-1-1 0-1.108-0.892-2-2-2zm0 1c0.554 0 1 0.446 1 1h-2c0-0.554 0.446-1 1-1z"
     color="#000000"
     fill="#f2f2f2"
     stroke-linecap="round"
     stroke-linejoin="round"
     style="-inkscape-stroke:none"
     id="path5" />
  <path
     d="m3 1c-1.662 0-3 1.338-3 3v5c0 1.662 1.338 3 3 3h3v2h-1.5c-0.277 0-0.5 0.223-0.5 0.5s0.223 0.5 0.5 0.5h4.7773c-0.17448-0.2959-0.27734-0.63714-0.27734-1v-2c0-0.38836 0.13176-0.72287 0.3457-1h-6.3457c-1.108 0-2-0.892-2-2v-5c0-1.108 0.892-2 2-2h7v-1zm9 0c-0.554 0-1 0.446-1 1v5c0 0.554 0.446 1 1 1h1c0.36199 0 0.69646 0.074233 1 0.20312v-0.20312h1c0.554 0 1-0.446 1-1v-5c0-0.554-0.446-1-1-1zm0 1h3v2h-3zm0 3h3v2h-3zm-5 7h1v2h-1z"
     fill="#f2f2f2"
     id="path6" />
  <path
     style="fill:#000000;fill-rule:evenodd;stroke-width:0.0197044"
     d="M 4.2948037,14.948207 C 4.1945525,14.902669 4.0633371,14.755225 4.033025,14.654052 3.9626875,14.419287 4.0574514,14.185456 4.2708506,14.067218 l 0.1035336,-0.05737 0.8128079,-0.0061 L 6,13.99762 V 12.994704 11.991788 L 4.3004926,11.98472 C 2.6616294,11.977904 2.5942335,11.976176 2.4117742,11.936289 1.5985209,11.758508 0.94493399,11.315981 0.49803699,10.64055 0.29012282,10.326312 0.15196168,9.9896759 0.06366196,9.5821738 L 0.01970443,9.3793103 V 6.5024631 c 0,-2.7055778 0.0021377,-2.8873624 0.0359072,-3.0534724 C 0.18451429,2.8149276 0.49104804,2.2570856 0.94841261,1.8242368 1.3454306,1.4484998 1.8085862,1.2041254 2.3804077,1.0686744 L 2.5615764,1.0257598 6.2807882,1.0199201 10,1.0140803 V 1.5070402 2 H 6.3834057 C 3.1578266,2 2.7503909,2.0033802 2.6149328,2.031264 1.8435077,2.1900608 1.270648,2.7321255 1.0481896,3.5137846 l -0.043042,0.15124 -0.005499,2.7631098 c -0.005413,2.719813 -0.004865,2.7662181 0.0349238,2.9614666 0.1652738,0.811013 0.7639515,1.410377 1.5735591,1.575365 0.1923269,0.03919 0.2586773,0.03996 3.4585738,0.03996 h 3.2624848 l -0.076795,0.118817 c -0.1034006,0.15998 -0.188389,0.370062 -0.22707,0.56129 -0.027899,0.137926 -0.031102,0.313958 -0.025277,1.389163 0.00649,1.198731 0.00783,1.235587 0.050486,1.396612 0.024099,0.09096 0.079115,0.240714 0.1222569,0.332777 0.043142,0.09206 0.078441,0.170594 0.078441,0.174512 0,0.0039 -1.0972906,0.0069 -2.4384236,0.0067 -2.3225435,-4.12e-4 -2.4422055,-0.0022 -2.5180042,-0.03658 z M 8.0098522,12.995074 V 11.990148 H 7.4975369 6.9852217 V 12.995074 14 h 0.5123152 0.5123153 z"
     id="path7" />
  <path
     style="fill:#000000;fill-rule:evenodd;stroke-width:0.0197044"
     d="M 13.832512,8.134971 C 13.505118,8.0179813 13.401705,8.0062912 12.561576,7.9913023 11.836444,7.9783649 11.77551,7.9745574 11.669976,7.9355907 11.431656,7.8475949 11.231283,7.6715921 11.120794,7.4532024 10.998837,7.2121458 11.003577,7.3404824 11.009437,4.4384889 l 0.0053,-2.6453855 0.04442,-0.1166359 c 0.119076,-0.3126566 0.358311,-0.5364362 0.67344,-0.629935 0.09472,-0.028104 0.297773,-0.031754 1.766398,-0.031754 1.60099,0 1.663778,0.00138 1.784601,0.039178 0.336474,0.1052674 0.589567,0.3674231 0.676338,0.7005569 0.02636,0.1012003 0.03017,0.4465489 0.03017,2.7334214 0,2.9064695 0.0057,2.7756711 -0.130417,3.0028374 -0.138791,0.2316631 -0.356255,0.4003943 -0.597047,0.463252 -0.107453,0.02805 -0.226773,0.034046 -0.696182,0.034988 L 14,7.9901478 V 8.08867 C 14,8.142857 13.9933,8.186532 13.98522,8.185725 13.97712,8.1849183 13.90837,8.162079 13.83251,8.13497 Z M 15.004926,6 V 4.9950739 H 13.497537 11.990148 V 6 7.0049261 h 1.507389 1.507389 z m 0,-2.9950739 V 2 h -1.507389 -1.507389 v 1.0049261 1.0049261 h 1.507389 1.507389 z"
     id="path8" />
  <path
     style="fill:#000000;fill-rule:evenodd;stroke-width:0.0197044"
     d="m 10.731126,14.954039 c -0.311802,-0.08385 -0.562354,-0.326612 -0.675723,-0.65472 l -0.04555,-0.131831 v -1.162562 c 0,-1.147758 5.59e-4,-1.164318 0.0439,-1.300493 0.113284,-0.355965 0.427555,-0.625167 0.796858,-0.682581 l 0.149786,-0.02329 0.01385,-0.15874 c 0.07855,-0.9005127 0.735092,-1.6300448 1.616591,-1.7963217 0.259875,-0.04902 0.66533,-0.031539 0.906116,0.039066 0.214261,0.062828 0.417851,0.1564472 0.585046,0.269029 0.159473,0.1073824 0.419027,0.3669368 0.526409,0.5264096 0.184028,0.2732981 0.310198,0.6323951 0.330498,0.9406411 l 0.01174,0.178255 0.149997,0.02386 c 0.411653,0.0655 0.745857,0.375734 0.827738,0.768378 0.01441,0.06912 0.02177,0.482351 0.02177,1.222461 0,1.227586 -8.68e-4,1.238127 -0.12032,1.462243 -0.117219,0.219926 -0.369897,0.418449 -0.616003,0.483979 -0.154504,0.04114 -4.368754,0.03761 -4.522699,-0.0038 z M 14,10.919833 c 0,-0.205693 -0.112095,-0.444872 -0.293528,-0.626305 -0.203322,-0.203321 -0.419105,-0.2937076 -0.700196,-0.293294 -0.286615,4.21e-4 -0.518935,0.09425 -0.713745,0.288277 -0.172138,0.171443 -0.302383,0.464607 -0.302383,0.680625 0,0.03412 0.04701,0.03579 1.004926,0.03579 H 14 Z"
     id="path9" />
</svg>
