<?xml version="1.0" encoding="UTF-8" standalone="no"?>
<svg
   width="16"
   height="16"
   version="1.1"
   id="svg2"
   sodipodi:docname="network-wireless-no-route.svg"
   inkscape:version="1.4.2 (ebf0e940d0, 2025-05-08)"
   xmlns:inkscape="http://www.inkscape.org/namespaces/inkscape"
   xmlns:sodipodi="http://sodipodi.sourceforge.net/DTD/sodipodi-0.dtd"
   xmlns="http://www.w3.org/2000/svg"
   xmlns:svg="http://www.w3.org/2000/svg">
  <defs
     id="defs2" />
  <sodipodi:namedview
     id="namedview2"
     pagecolor="#ffffff"
     bordercolor="#000000"
     borderopacity="0.25"
     inkscape:showpageshadow="2"
     inkscape:pageopacity="0.0"
     inkscape:pagecheckerboard="0"
     inkscape:deskcolor="#d1d1d1"
     inkscape:zoom="51.125"
     inkscape:cx="7.99022"
     inkscape:cy="8"
     inkscape:window-width="1876"
     inkscape:window-height="1002"
     inkscape:window-x="0"
     inkscape:window-y="0"
     inkscape:window-maximized="1"
     inkscape:current-layer="svg2" />
  <g
     fill="#f2f2f2"
     id="g1">
    <path
       d="m7.9902 3c-2.8366 0.0023274-5.4251 1.009-7.4766 2.6582a0.5 0.5 0 0 0-0.095703 0.072266 0.5 0.5 0 0 0-0.1543 0.35938 0.5 0.5 0 0 0 0.5 0.5 0.5 0.5 0 0 0 0.31836-0.11328c1.237-1.0066 2.6935-1.7505 4.2871-2.1484 0.15894-0.20734 0.33528-0.40372 0.53516-0.58008 0.39441-0.34841 0.75693-0.54168 1.2754-0.64648 0.28551-0.050572 0.5796-0.10129 0.81055-0.10156zm0.0097656 0c0.85178 0.0013192 1.6787 0.28905 2.2812 0.85742 0.15578 0.14531 0.2933 0.30895 0.41211 0.48438 1.5694 0.40178 3.0036 1.1412 4.2246 2.1348a0.5 0.5 0 0 0 0.31836 0.11328 0.5 0.5 0 0 0 0.5-0.5 0.5 0.5 0 0 0-0.1543-0.35938 0.5 0.5 0 0 0-0.095703-0.072266c-2.0539-1.6511-4.6459-2.6582-7.4863-2.6582zm0 3c-0.05854 0-0.11558 0.0066744-0.17383 0.0078125-0.034265 0.032673-0.096932 0.10715-0.16211 0.30273-0.18351 0.55179-0.79729 0.83127-1.334 0.60742l-0.93359-0.39062c-0.050475-0.021186-0.085818-0.059783-0.13086-0.087891-1.0051 0.32723-1.9354 0.82211-2.7539 1.457a0.5 0.5 0 0 0-0.10156 0.074219 0.5 0.5 0 0 0-0.15625 0.36133 0.5 0.5 0 0 0 0.5 0.5 0.5 0.5 0 0 0 0.32031-0.11523c1.1913-0.93711 2.6475-1.5505 4.2441-1.6875 0.12626-0.13695 0.25528-0.27373 0.4082-0.41406 0.18575-0.17199 0.31443-0.30111 0.35352-0.34375l0.0019531-0.0019532c0.0054331-0.0058854 0.044505-0.051895 0.091797-0.14648 0.00256-0.005231 0.0051625-0.010435 0.0078125-0.015625 0.020205-0.038725 0.015625-0.040595 0.015625-0.046875 0-0.083508-0.0018347-0.057112-0.0058594-0.052734-0.064098-0.0013788-0.12696-0.0078125-0.19141-0.0078125zm3.1484 0.58398c-0.053379 0.25082-0.13078 0.49623-0.24805 0.72461-0.037872 0.07375-0.076008 0.13551-0.11328 0.20312 0.77621 0.29312 1.4969 0.70023 2.1387 1.2051a0.5 0.5 0 0 0 0.32031 0.11523 0.5 0.5 0 0 0 0.5-0.5 0.5 0.5 0 0 0-0.15625-0.36133 0.5 0.5 0 0 0-0.10156-0.074219c-0.70502-0.54688-1.4932-0.9898-2.3398-1.3125zm-1.6543 2.6328v0.3125c-3.522e-4 0.23167-0.081122 0.45603-0.22852 0.63477 0.006828 0.008197 0.010835 0.01902 0.017578 0.027344 0.59411 0.16681 1.1481 0.43014 1.6348 0.78711 0.09181 0.08388 0.21158 0.13053 0.33594 0.13086 0.27614 0 0.5-0.22386 0.5-0.5-1.6e-5 -0.14559-0.057622-0.2898-0.16797-0.38477-0.61673-0.4648-1.3273-0.80237-2.0918-1.0078zm-3.0195 0.0078125c-0.75248 0.20669-1.4522 0.54151-2.0605 1-0.11034 0.09497-0.16795 0.23918-0.16797 0.38477 0 0.27614 0.22386 0.5 0.5 0.5 0.12436-3.26e-4 0.24413-0.04698 0.33594-0.13086 0.46966-0.3445 1.002-0.60114 1.5723-0.76953 0.014172-0.01832 0.020484-0.04285 0.035156-0.060546-0.13912-0.17639-0.2148-0.39449-0.21484-0.61914v-0.30469zm2.7383 0.81055c0.00306 0.00302 0.0028194 0.008619 0.0058594 0.011719 0.003069 0.0032 0.0086787 0.002659 0.011719 0.005859l-0.017578-0.017578zm-0.25977 2.6621c-0.28988 0.19236-0.64387 0.30273-0.96875 0.30273-0.31759 0-0.65845-0.10424-0.94336-0.28125a1 1 0 0 0-0.041016 0.28125 1 1 0 0 0 1 1 1 1 0 0 0 1-1 1 1 0 0 0-0.046875-0.30273z"
       fill="#f2f2f2"
       fill-rule="evenodd"
       style="paint-order:stroke fill markers"
       id="path1" />
  </g>
  <path
     d="m7.9948 4c0.65763 0 1.1922 0.19569 1.6041 0.58594 0.41192 0.38302 0.61719 0.87414 0.61719 1.474 0 0.26016-0.06843 0.52428-0.20573 0.79167-0.13731 0.26739-0.25879 0.4573-0.36719 0.57292-0.10117 0.1084-0.247 0.25104-0.4349 0.42448l-0.05208 0.054688c-0.44083 0.39747-0.66147 0.79263-0.66147 1.1901v0.4349h-1.0208v-0.51042c0-0.3252 0.068422-0.60208 0.20573-0.83334 0.13731-0.23848 0.37968-0.51796 0.72656-0.83594 0.19512-0.18067 0.33196-0.31432 0.41146-0.40104 0.08672-0.093949 0.17051-0.21861 0.25-0.3776 0.086721-0.16621 0.13021-0.33698 0.13021-0.51042 0-0.33243-0.10872-0.59974-0.32552-0.80209-0.20957-0.20235-0.50182-0.3047-0.87761-0.3047-0.6215 0-1.0474 0.3479-1.2786 1.0417l-0.9323-0.39063c0.15176-0.41192 0.41268-0.78158 0.78126-1.1068 0.37579-0.33243 0.85155-0.4974 1.4297-0.4974zm-0.0104 6.526c0.20957 0 0.38352 0.07161 0.52083 0.21615 0.14453 0.14454 0.21615 0.31848 0.21615 0.52083s-0.071614 0.3763-0.21615 0.52083c-0.13731 0.14453-0.31127 0.21615-0.52084 0.21615s-0.38672-0.07161-0.53126-0.21615c-0.13731-0.14454-0.20573-0.31848-0.20573-0.52083s0.068422-0.3763 0.20573-0.52083c0.14453-0.14453 0.32168-0.21615 0.53126-0.21615z"
     enable-background="new"
     fill="#f2f2f2"
     opacity=".35"
     id="path2" />
  <path
     style="fill:#000000;fill-rule:evenodd;stroke-width:0.0195599"
     d="M 7.4867407,9.1002445 C 7.4947334,8.7485995 7.5027952,8.6620072 7.539096,8.5378973 7.6481943,8.1648964 7.8011423,7.9578731 8.4278191,7.3349633 8.9542967,6.8116501 9.0219024,6.7239071 9.1407274,6.4097029 9.2097976,6.2270637 9.2140301,5.8951987 9.1498893,5.6913477 9.0713993,5.4418934 8.8617109,5.1990172 8.6194441,5.0769481 8.3753089,4.9539377 7.9328246,4.9166474 7.6375337,4.9941977 7.2361387,5.0996135 6.8926737,5.4542825 6.740048,5.9209597 L 6.7163211,5.9935087 6.6051043,5.943547 C 6.5439351,5.916068 6.4630807,5.8817969 6.4254279,5.8673889 6.3877751,5.8529809 6.2337408,5.7888491 6.0831296,5.7248736 5.7660473,5.5901859 5.7753799,5.6075931 5.8925797,5.3694617 6.0127769,5.1252398 6.1829448,4.8902816 6.3927073,4.6789139 6.6180604,4.4518362 6.659602,4.4160852 6.8096022,4.3201312 7.4121736,3.934671 8.3810901,3.8991138 9.0757946,4.2369667 9.6128311,4.4981415 10.016528,4.9798271 10.14044,5.5072871 10.20061,5.7634043 10.20214,5.7759244 10.20203,6.0105884 10.201852,6.364915 10.144962,6.586711 9.9701952,6.9144254 9.7936808,7.2454163 9.7162017,7.3421467 9.2886768,7.7652812 8.76426,8.2843126 8.6416851,8.4504051 8.5401426,8.7795666 8.5056272,8.8914523 8.4987775,8.9635182 8.4987775,9.2147744 v 0.301118 H 7.9880354 7.4772932 Z"
     id="path3" />
  <path
     style="fill:#000000;fill-rule:evenodd;stroke-width:0.0195599"
     d="M 15.080685,6.5579478 C 15.012564,6.5337189 14.974723,6.5073283 14.603969,6.2254801 14.02847,5.7879842 13.427369,5.4204896 12.75326,5.0940141 12.082345,4.7690849 11.597501,4.5873083 10.806846,4.3642678 10.709778,4.3368854 10.689354,4.3208791 10.597818,4.2004581 10.463132,4.0232709 10.147997,3.719705 9.9657702,3.5916142 9.5948605,3.3308939 9.2212529,3.1742509 8.6943765,3.0585553 l -0.1662591,-0.036509 0.2151589,0.010908 c 0.9068521,0.045975 1.9706177,0.2493593 2.9136247,0.5570636 1.324155,0.4320734 2.438725,1.0212847 3.61109,1.9089825 0.290989,0.2203325 0.352198,0.2757655 0.398562,0.3609522 0.06609,0.1214308 0.0754,0.294636 0.0225,0.4187755 -0.09696,0.2275574 -0.383662,0.3591425 -0.608371,0.2792192 z"
     id="path4" />
  <path
     style="fill:#000000;fill-rule:evenodd;stroke-width:0.0195599"
     d="M 13.113819,8.8053667 C 13.057397,8.7896798 12.942585,8.718994 12.800861,8.6126881 12.251908,8.2009252 11.667707,7.8679044 11.022005,7.5986614 c -0.112959,-0.047101 -0.208004,-0.087251 -0.211211,-0.089221 -0.0032,-0.00197 0.03874,-0.092263 0.09321,-0.2006499 0.0961,-0.1912125 0.199358,-0.472638 0.226496,-0.6172933 0.0073,-0.038996 0.02098,-0.075647 0.03036,-0.081446 0.02186,-0.013512 0.423211,0.1549022 0.751121,0.3151876 0.659584,0.3224097 1.613767,0.9465729 1.745185,1.1415833 0.247337,0.3670238 -0.113842,0.8579573 -0.543346,0.7385449 z"
     id="path5" />
  <path
     style="fill:#000000;fill-rule:evenodd;stroke-width:0.0195599"
     d="m 11.093127,11.072785 c -0.04157,-0.01548 -0.107582,-0.05174 -0.146699,-0.08059 -0.421532,-0.310862 -0.888233,-0.552467 -1.397946,-0.723696 -0.138066,-0.04638 -0.2551425,-0.08844 -0.2601702,-0.09347 -0.00503,-0.005 0.017745,-0.05154 0.050607,-0.103354 C 9.4526292,9.8923703 9.4817001,9.7842401 9.4944279,9.4932509 L 9.5061125,9.2261105 9.729505,9.293818 c 0.528847,0.1602868 1.113627,0.4376316 1.582772,0.750663 0.319979,0.213503 0.381355,0.279842 0.417194,0.450929 0.06399,0.30546 -0.135606,0.578093 -0.437472,0.597564 -0.07788,0.005 -0.151136,-0.0024 -0.198872,-0.02019 z"
     id="path6" />
  <path
     style="fill:#000000;fill-rule:evenodd;stroke-width:0.0195599"
     d="M 7.7801987,13.965494 C 7.4214824,13.88756 7.118935,13.584136 7.0319088,13.215037 c -0.023891,-0.101326 -0.019209,-0.439635 0.00644,-0.465283 0.00626,-0.0063 0.086928,0.02554 0.1792692,0.07065 0.494401,0.24154 1.0492818,0.238604 1.5447715,-0.0082 0.1031773,-0.05139 0.1828019,-0.08024 0.1930767,-0.06997 0.00962,0.0096 0.021906,0.0952 0.027308,0.19018 0.01709,0.300477 -0.077361,0.557897 -0.2786191,0.759365 -0.2499752,0.250236 -0.5808211,0.348237 -0.9239548,0.273688 z"
     id="path7" />
  <path
     style="fill:#000000;fill-rule:evenodd;stroke-width:0.0195599"
     d="M 7.8324032,11.980269 C 7.7004183,11.957922 7.5611001,11.879549 7.4586402,11.770012 7.339864,11.64303 7.2916433,11.544678 7.265477,11.376033 c -0.07412,-0.477714 0.2800568,-0.86646 0.76425,-0.838845 0.4218682,0.02406 0.718191,0.377093 0.6779776,0.807729 -0.02885,0.308954 -0.2758215,0.57773 -0.5846832,0.636304 -0.1111216,0.02107 -0.1615071,0.02091 -0.2906182,-9.52e-4 z"
     id="path8" />
  <path
     style="fill:#000000;fill-rule:evenodd;stroke-width:0.0195599"
     d="M 4.5818674,11.073537 C 4.3992333,11.005376 4.277245,10.846202 4.2597465,10.653226 4.2478499,10.522029 4.2740223,10.421248 4.3487432,10.31053 4.4635147,10.140467 5.2824375,9.6621702 5.8190709,9.4517756 6.0405621,9.3649369 6.4074451,9.2420538 6.4452217,9.2420538 c 0.011311,0 0.019467,0.075039 0.019665,0.1809291 4.515e-4,0.240487 0.040807,0.4187813 0.133814,0.5912111 0.042162,0.07817 0.070821,0.151565 0.063687,0.163108 -0.00713,0.01154 -0.1183811,0.05794 -0.2472153,0.10311 -0.4622177,0.162045 -0.9069413,0.387527 -1.2505192,0.634033 -0.08307,0.0596 -0.1784588,0.122544 -0.211974,0.139876 -0.083442,0.04315 -0.2794668,0.05331 -0.3708126,0.01922 z"
     id="path9" />
  <path
     style="fill:#000000;fill-rule:evenodd;stroke-width:0.0195599"
     d="M 2.6797066,8.8179724 C 2.4449462,8.7652497 2.2917292,8.6049798 2.2657596,8.3849704 2.2428909,8.1912311 2.315086,8.056951 2.5335857,7.8868239 2.7563896,7.7133456 3.3750315,7.3062476 3.6381418,7.1599696 4.0925471,6.9073398 4.6437455,6.6597346 5.0799896,6.5122737 5.2674034,6.4489237 5.2706394,6.4485447 5.3164542,6.4845827 5.3719942,6.5282707 6.3021301,6.9197941 6.4580868,6.965132 6.6123171,7.009968 6.9225072,6.995291 7.0753011,6.935929 7.3329929,6.835812 7.5560025,6.6073632 7.6595714,6.3374089 7.6925904,6.2513449 7.7412554,6.1435214 7.7677176,6.0978001 l 0.048112,-0.08313 H 8.000824 c 0.157239,0 0.1849947,0.00474 0.1849947,0.031583 0,0.089146 -0.1208157,0.2348228 -0.495157,0.5970471 L 7.2947752,7.0263724 7.1388301,7.0404516 C 6.8909391,7.062832 6.4422175,7.1437643 6.1007544,7.2276809 5.0495904,7.486011 4.0716213,7.9549311 3.17443,8.6308053 3.0137932,8.7518165 2.9417913,8.7935527 2.8653987,8.8099358 2.7623444,8.8320372 2.7455665,8.8327632 2.6797066,8.8179724 Z"
     id="path10" />
  <path
     style="fill:#000000;fill-rule:evenodd;stroke-width:0.0195599"
     d="M 0.56723716,6.5358856 C 0.30471146,6.4133747 0.19829835,6.1082656 0.33225532,5.8621426 0.37877595,5.7766689 0.43998942,5.7211339 0.73149749,5.4999366 1.3171312,5.0555556 1.7905816,4.748965 2.412034,4.4116775 3.4325105,3.8578233 4.7179296,3.4085226 5.8777506,3.2002837 6.4082729,3.1050315 7.1744614,3.0194696 7.4600532,3.0235845 c 0.1000008,0.00144 0.090732,0.0049 -0.10553,0.039416 C 7.0124413,3.1231565 6.7837481,3.1917595 6.5525672,3.3035699 6.186215,3.4807558 5.8205485,3.7759051 5.5146822,4.1413034 5.4061592,4.2709486 5.345573,4.3271254 5.3024305,4.3381073 4.3760252,4.5739239 3.4011247,4.9706361 2.5623472,5.453118 2.0877893,5.7260933 1.7093053,5.9838206 1.0978186,6.4503838 0.91234703,6.5918983 0.7450398,6.6188595 0.56723716,6.5358856 Z"
     id="path11" />
</svg>
