<?xml version="1.0" encoding="UTF-8" standalone="no"?>
<svg
   width="16"
   height="16"
   version="1.1"
   id="svg3"
   sodipodi:docname="network-wired-acquiring.svg"
   inkscape:version="1.4.2 (ebf0e940d0, 2025-05-08)"
   xmlns:inkscape="http://www.inkscape.org/namespaces/inkscape"
   xmlns:sodipodi="http://sodipodi.sourceforge.net/DTD/sodipodi-0.dtd"
   xmlns="http://www.w3.org/2000/svg"
   xmlns:svg="http://www.w3.org/2000/svg">
  <defs
     id="defs3" />
  <sodipodi:namedview
     id="namedview3"
     pagecolor="#ffffff"
     bordercolor="#000000"
     borderopacity="0.25"
     inkscape:showpageshadow="2"
     inkscape:pageopacity="0.0"
     inkscape:pagecheckerboard="0"
     inkscape:deskcolor="#d1d1d1"
     inkscape:zoom="45.406408"
     inkscape:cx="7.0364517"
     inkscape:cy="8.6111193"
     inkscape:window-width="1876"
     inkscape:window-height="996"
     inkscape:window-x="0"
     inkscape:window-y="0"
     inkscape:window-maximized="1"
     inkscape:current-layer="svg3" />
  <path
     d="m3 1c-1.662 0-3 1.338-3 3v5c0 1.662 1.338 3 3 3h3v2h-1.5c-0.277 0-0.5 0.223-0.5 0.5s0.223 0.5 0.5 0.5h7c0.277 0 0.5-0.223 0.5-0.5s-0.223-0.5-0.5-0.5h-2.5v-2h3v-1h-9c-1.108 0-2-0.892-2-2v-5c0-1.108 0.892-2 2-2h7v-1zm9 0c-0.554 0-1 0.446-1 1v5c0 0.554 0.446 1 1 1h1v6.5c0 0.277 0.223 0.5 0.5 0.5s0.5-0.223 0.5-0.5v-6.5h1c0.554 0 1-0.446 1-1v-5c0-0.554-0.446-1-1-1zm0 1h3v2h-3zm0 3h3v2h-3zm-5 7h1v2h-1z"
     fill="#f2f2f2"
     id="path1" />
  <circle
     cx="3.5"
     cy="6.5"
     r=".5"
     fill="#f2f2f2"
     id="circle1" />
  <circle
     cx="6.5"
     cy="6.5"
     r=".5"
     fill="#f2f2f2"
     id="circle2" />
  <circle
     cx="9.5"
     cy="6.5"
     r=".5"
     fill="#f2f2f2"
     id="circle3" />
  <path
     style="fill:#000000;fill-rule:evenodd;stroke-width:0.0220233"
     d="m 4.2698737,14.925333 c -0.322223,-0.168331 -0.3467816,-0.62099 -0.045045,-0.83027 l 0.095455,-0.06621 0.8405358,-0.01101 0.8405359,-0.01101 0.00573,-1.006446 0.00573,-1.006447 -1.7125349,-0.0081 C 2.3916455,11.97684 2.4674301,11.98254 1.993116,11.814544 0.98189169,11.456529 0.26122967,10.606151 0.05284347,9.5250872 0.01543684,9.3310296 0.01195498,9.1251201 0.00480286,6.6840786 -3.7170744e-4,4.9179851 0.00492653,3.9617056 0.02090997,3.7769023 0.08682666,3.014762 0.36037605,2.4213181 0.88981645,1.8918776 1.330439,1.4512551 1.7946585,1.1996961 2.4217835,1.0617099 2.629626,1.0159783 2.6696914,1.0154267 6.3151879,1.0081066 l 3.6834008,-0.0074 V 1.4964717 1.992233 L 6.3261996,1.998173 2.6538104,2.004113 2.4573386,2.065673 C 1.9894599,2.2122801 1.5949887,2.4934626 1.3467504,2.857319 1.2405445,3.0129906 1.1080317,3.3027175 1.0520252,3.5017084 l -0.049588,0.1761866 -0.00627,2.7468032 c -0.006001,2.6290437 -0.004471,2.7555626 0.0357012,2.9511253 0.1424414,0.6934275 0.6009739,1.2448945 1.2412918,1.4928725 0.3619654,0.14018 0.043783,0.131954 5.1037247,0.131954 h 4.6038031 v 0.495525 0.495524 H 10.48288 8.9850714 l 0.00573,1.007567 0.00573,1.007567 1.3324116,0.01101 c 1.462004,0.01208 1.391314,0.0053 1.5226,0.146691 0.09339,0.100599 0.129189,0.192755 0.128665,0.331223 -8.05e-4,0.2126 -0.107561,0.380442 -0.290618,0.456909 -0.0729,0.03045 -0.47802,0.0342 -3.6918976,0.0342 H 4.387671 Z m 3.7413325,-1.926473 0.00573,-1.007973 -0.5122647,0.0059 -0.5122647,0.0059 -0.00574,0.980038 c -0.00316,0.539021 -9.208e-4,0.992613 0.00497,1.007982 0.00832,0.02169 0.1229963,0.02662 0.5122802,0.02202 l 0.5015626,-0.0059 z"
     id="path3" />
  <path
     style="fill:#000000;fill-rule:evenodd;stroke-width:0.0220233"
     d="M 3.2818512,6.9330047 C 3.107475,6.8411061 3.0319677,6.725154 3.0210853,6.532562 3.0143809,6.4139108 3.0218899,6.3647951 3.057365,6.2952582 3.2087857,5.9984491 3.5666535,5.9192677 3.8110842,6.1284913 4.1465019,6.4155964 3.9730333,6.9468715 3.5312869,6.9854149 c -0.1118297,0.00976 -0.1444985,0.00289 -0.2494357,-0.05241 z"
     id="path4" />
  <path
     style="fill:#000000;fill-rule:evenodd;stroke-width:0.0220233"
     d="M 6.3566719,6.970872 C 6.0195722,6.8636709 5.9003579,6.4226915 6.1401696,6.1700193 6.3831066,5.9140542 6.7956285,5.9799266 6.9469679,6.2988507 7.0059875,6.4232253 6.9880303,6.6496148 6.9097644,6.7678826 6.7977949,6.9370799 6.5436796,7.0303423 6.3566719,6.970872 Z"
     id="path5" />
  <path
     style="fill:#000000;fill-rule:evenodd;stroke-width:0.0220233"
     d="M 9.3268773,6.9592919 C 9.1547134,6.8983561 9.0080247,6.6870388 9.007662,6.4994355 9.0069436,6.1279447 9.4345194,5.886158 9.7486917,6.0803958 c 0.1549719,0.095812 0.2362414,0.2380248 0.2357462,0.4125311 -10e-4,0.3537476 -0.3255029,0.5838938 -0.6575606,0.466365 z"
     id="path6" />
  <path
     style="fill:#000000;fill-rule:evenodd;stroke-width:0.0220233"
     d="m 13.324769,14.963521 c -0.09112,-0.0383 -0.191943,-0.125447 -0.246333,-0.212929 l -0.05164,-0.08306 -0.01101,-3.336533 -0.01101,-3.3365337 -0.627664,-0.011242 c -0.553997,-0.00992 -0.639297,-0.016203 -0.72677,-0.053514 -0.315333,-0.1345028 -0.524593,-0.369665 -0.608695,-0.6840369 -0.02381,-0.089003 -0.02951,-0.6148883 -0.02972,-2.7427825 -2.29e-4,-2.301428 0.004,-2.6491809 0.03371,-2.763927 0.09144,-0.3533398 0.384131,-0.626365 0.755986,-0.7051835 0.21428,-0.045419 3.183084,-0.045419 3.397365,0 0.379512,0.080442 0.681538,0.3726031 0.766596,0.7415589 0.01434,0.062209 0.02247,1.0307387 0.02282,2.7182974 5.89e-4,2.8654588 0.0056,2.7468498 -0.12682,2.9913536 -0.09074,0.1675164 -0.253254,0.3168779 -0.443806,0.4078809 l -0.166617,0.079572 -0.627664,0.011012 -0.627665,0.011012 -0.01101,3.3381458 -0.01101,3.338146 -0.06075,0.0918 c -0.09543,0.144192 -0.214567,0.211087 -0.388292,0.218019 -0.08007,0.0032 -0.170065,-0.0045 -0.199985,-0.01705 z M 14.997883,6.0012027 V 4.987977 l -1.503092,0.00566 -1.503092,0.00566 -0.0057,0.9800379 c -0.0032,0.5390208 -9.93e-4,0.992426 0.0048,1.007567 0.0083,0.02165 0.330527,0.027529 1.508836,0.027529 h 1.498277 z m 0,-2.9951719 V 1.9928051 l -1.503092,0.00566 -1.503092,0.00566 -0.0057,0.9800379 c -0.0032,0.5390208 -9.93e-4,0.992426 0.0048,1.007567 0.0083,0.02165 0.330527,0.027529 1.508836,0.027529 h 1.498277 z"
     id="path7" />
</svg>
