<?xml version="1.0" encoding="UTF-8" standalone="no"?>
<svg
   width="16"
   height="16"
   version="1.1"
   id="svg1"
   sodipodi:docname="nm-device-wired.svg"
   inkscape:version="1.4.2 (ebf0e940d0, 2025-05-08)"
   xmlns:inkscape="http://www.inkscape.org/namespaces/inkscape"
   xmlns:sodipodi="http://sodipodi.sourceforge.net/DTD/sodipodi-0.dtd"
   xmlns="http://www.w3.org/2000/svg"
   xmlns:svg="http://www.w3.org/2000/svg">
  <defs
     id="defs1" />
  <sodipodi:namedview
     id="namedview1"
     pagecolor="#ffffff"
     bordercolor="#000000"
     borderopacity="0.25"
     inkscape:showpageshadow="2"
     inkscape:pageopacity="0.0"
     inkscape:pagecheckerboard="0"
     inkscape:deskcolor="#d1d1d1"
     showgrid="false"
     inkscape:zoom="48"
     inkscape:cx="7.9895833"
     inkscape:cy="8"
     inkscape:window-width="1876"
     inkscape:window-height="996"
     inkscape:window-x="0"
     inkscape:window-y="0"
     inkscape:window-maximized="1"
     inkscape:current-layer="svg1" />
  <path
     d="m3 1c-1.662 0-3 1.338-3 3v5c0 1.662 1.338 3 3 3h3v2h-1.5c-0.277 0-0.5 0.223-0.5 0.5s0.223 0.5 0.5 0.5h7c0.277 0 0.5-0.223 0.5-0.5s-0.223-0.5-0.5-0.5h-2.5v-2h3v-1h-9c-1.108 0-2-0.892-2-2v-5c0-1.108 0.892-2 2-2h7v-1h-7zm9 0c-0.554 0-1 0.446-1 1v2 1 2c0 0.554 0.446 1 1 1h1v6.5c0 0.277 0.223 0.5 0.5 0.5s0.5-0.223 0.5-0.5v-6.5h1c0.554 0 1-0.446 1-1v-5c0-0.554-0.446-1-1-1h-3zm0 1h3v2h-3v-2zm0 3h3v2h-1.5-1.5v-2zm-5 7h1v2h-1v-2z"
     fill="#f2f2f2"
     id="path1" />
  <path
     style="fill:#000000;fill-rule:evenodd;stroke-width:0.0208333"
     d="m 4.325516,14.958977 c -0.254725,-0.0908 -0.3908968,-0.430499 -0.2680656,-0.668731 0.057553,-0.111626 0.190825,-0.229945 0.2900334,-0.257493 0.04961,-0.01378 0.3758983,-0.02215 0.8660579,-0.02222 L 6,14.010417 V 13.001008 11.9916 L 4.2864583,11.9842 2.5729167,11.9768 2.3541667,11.92251 C 2.055309,11.848431 1.8621735,11.776403 1.6041667,11.642895 0.91882381,11.288259 0.38971554,10.656192 0.15040844,9.90625 0.00520306,9.4512048 0.01041667,9.578449 0.01041667,6.4895833 c 0,-2.5573935 0.0029338,-2.797577 0.0364503,-2.9841008 C 0.15487742,2.9043899 0.42594219,2.3670038 0.83914988,1.934781 1.2510888,1.5038853 1.7279103,1.233865 2.3541667,1.0768386 l 0.21875,-0.054849 3.7135416,-0.00628 L 10,1.0094231 V 1.4990525 1.988682 L 6.3489583,1.994812 2.6979167,2.000942 2.5251273,2.047247 C 2.1366269,2.1513642 1.8211918,2.3355757 1.5558608,2.6132944 1.3101183,2.8705103 1.158307,3.1352352 1.0580569,3.4813535 l -0.04764,0.1644798 V 6.5 9.3541667 l 0.04764,0.1644798 C 1.265993,10.236556 1.7993103,10.757924 2.5251273,10.952847 l 0.1727894,0.0464 4.6510416,0.0059 L 12,11.011132 v 0.489226 0.489225 H 10.5 9 V 13 14.010417 l 1.286458,1.16e-4 c 0.842662,7.6e-5 1.313919,0.0077 1.366058,0.02222 0.09921,0.02755 0.23248,0.145867 0.290034,0.257493 0.05943,0.115266 0.05943,0.304242 0,0.419508 -0.05755,0.111626 -0.190825,0.229945 -0.290034,0.257493 -0.05475,0.0152 -1.198312,0.02186 -3.6629327,0.02131 -2.9940031,-6.67e-4 -3.5966112,-0.0055 -3.6640673,-0.02958 z M 8,13 V 11.989583 H 7.5 7 V 13 14.010417 H 7.5 8 Z"
     id="path2" />
  <path
     style="fill:#000000;fill-rule:evenodd;stroke-width:0.0208333"
     d="m 13.325516,14.958977 c -0.09799,-0.03493 -0.209269,-0.13821 -0.27005,-0.250644 l -0.04505,-0.08333 -0.0055,-3.317708 -0.0055,-3.3177087 h -0.557811 c -0.731327,0 -0.859779,-0.031776 -1.12271,-0.2777358 -0.161281,-0.1508698 -0.265784,-0.3503612 -0.297121,-0.5671887 -0.02837,-0.1963065 -0.02837,-5.0930111 0,-5.2893175 0.0575,-0.3978558 0.374168,-0.7374941 0.765751,-0.8212976 0.154902,-0.033151 3.27013,-0.033151 3.425032,0 0.391583,0.083803 0.70825,0.4234418 0.765752,0.8212976 0.02837,0.1963064 0.02837,5.093011 0,5.2893175 -0.0575,0.3978556 -0.374169,0.7374941 -0.765752,0.8212975 -0.06651,0.014234 -0.329354,0.023627 -0.661145,0.023627 h -0.550746 l -0.0055,3.3177087 -0.0055,3.317708 -0.04537,0.08475 c -0.12429,0.232202 -0.378817,0.33473 -0.618701,0.249223 z M 15,6 V 4.9895833 H 13.5 12 V 6 7.0104167 H 13.5 15 Z M 15,3 V 1.9895833 H 13.5 12 V 3 4.0104167 h 1.5 1.5 z"
     id="path3" />
</svg>
