<?xml version="1.0" encoding="UTF-8" standalone="no"?>
<svg
   width="16"
   height="16"
   version="1.1"
   id="svg3"
   sodipodi:docname="network-wireless-signal-low.svg"
   inkscape:version="1.4.2 (ebf0e940d0, 2025-05-08)"
   xmlns:inkscape="http://www.inkscape.org/namespaces/inkscape"
   xmlns:sodipodi="http://sodipodi.sourceforge.net/DTD/sodipodi-0.dtd"
   xmlns="http://www.w3.org/2000/svg"
   xmlns:svg="http://www.w3.org/2000/svg">
  <defs
     id="defs3" />
  <sodipodi:namedview
     id="namedview3"
     pagecolor="#ffffff"
     bordercolor="#000000"
     borderopacity="0.25"
     inkscape:showpageshadow="2"
     inkscape:pageopacity="0.0"
     inkscape:pagecheckerboard="0"
     inkscape:deskcolor="#d1d1d1"
     inkscape:zoom="51.125"
     inkscape:cx="7.99022"
     inkscape:cy="8"
     inkscape:window-width="1876"
     inkscape:window-height="1002"
     inkscape:window-x="0"
     inkscape:window-y="0"
     inkscape:window-maximized="1"
     inkscape:current-layer="svg3" />
  <g
     fill="#f2f2f2"
     id="g3">
    <path
       d="m8 3c-2.8405-3e-7 -5.4324 1.0071-7.4863 2.6582a0.5 0.5 0 0 0-0.095703 0.072266 0.5 0.5 0 0 0-0.1543 0.35938 0.5 0.5 0 0 0 0.5 0.5 0.5 0.5 0 0 0 0.31836-0.11328c1.891-1.5388 4.2898-2.4766 6.918-2.4766 2.6282-3e-7 5.0269 0.93776 6.918 2.4766a0.5 0.5 0 0 0 0.31836 0.11328 0.5 0.5 0 0 0 0.5-0.5 0.5 0.5 0 0 0-0.1543-0.35938 0.5 0.5 0 0 0-0.0957-0.072266c-2.0539-1.6511-4.6459-2.6582-7.4863-2.6582z"
       fill-rule="evenodd"
       opacity=".35"
       style="paint-order:stroke fill markers"
       id="path1" />
    <path
       d="m8 9c-1.3525-2e-7 -2.5832 0.46891-3.5859 1.2246-0.11034 0.09497-0.16795 0.23918-0.16797 0.38477 0 0.27614 0.22386 0.5 0.5 0.5 0.12436-3.26e-4 0.24413-0.04698 0.33594-0.13086 0.82215-0.60306 1.8199-0.97852 2.918-0.97852 1.0981-2e-7 2.0958 0.37546 2.918 0.97852 0.09181 0.08388 0.21158 0.13053 0.33594 0.13086 0.27614 0 0.5-0.22386 0.5-0.5-1.6e-5 -0.14559-0.05762-0.2898-0.16797-0.38477-1.0027-0.7557-2.2334-1.2246-3.5859-1.2246z"
       opacity=".35"
       id="path2" />
    <path
       d="m8 6c-2.0731 0-3.9681 0.71726-5.4883 1.8965a0.5 0.5 0 0 0-0.10156 0.074219 0.5 0.5 0 0 0-0.15625 0.36133 0.5 0.5 0 0 0 0.5 0.5 0.5 0.5 0 0 0 0.32031-0.11523c1.3588-1.0688 3.0627-1.7168 4.9258-1.7168 1.8631-2e-7 3.567 0.64796 4.9258 1.7168a0.5 0.5 0 0 0 0.32031 0.11523 0.5 0.5 0 0 0 0.5-0.5 0.5 0.5 0 0 0-0.15625-0.36133 0.5 0.5 0 0 0-0.10156-0.074219c-1.5202-1.1792-3.4152-1.8965-5.4883-1.8965z"
       fill-rule="evenodd"
       opacity=".35"
       style="paint-order:stroke fill markers"
       id="path3" />
    <circle
       cx="8"
       cy="13"
       r="1"
       fill-rule="evenodd"
       style="paint-order:stroke fill markers"
       id="circle3" />
  </g>
  <path
     style="fill:#000000;fill-rule:evenodd;stroke-width:0.0195599"
     d="M 7.7801987,13.965494 C 7.3402465,13.869911 7.013224,13.461447 7.0124571,13.006555 7.0118686,12.657496 7.1798556,12.35308 7.4801834,12.158969 c 0.2166794,-0.140047 0.5380695,-0.185097 0.7936552,-0.111248 0.7148722,0.206555 0.9539327,1.119923 0.4303149,1.644085 -0.2499752,0.250236 -0.5808211,0.348237 -0.9239548,0.273688 z"
     id="path5" />
  <path
     style="fill:#808080;fill-rule:evenodd;stroke-width:0.0195599"
     d="M 4.537098,11.055195 C 4.3734623,10.976928 4.2762074,10.83476 4.2593842,10.64923 4.2475349,10.518555 4.2834444,10.393053 4.3622437,10.289742 4.4231972,10.209828 4.8795883,9.9007689 5.1735941,9.7403118 6.6067845,8.958132 8.2394873,8.7963106 9.7692622,9.2848232 10.308619,9.4570595 10.75578,9.6744486 11.284086,10.021261 c 0.298743,0.196113 0.388749,0.282841 0.433568,0.417777 0.114556,0.344898 -0.14524,0.688171 -0.496702,0.656302 C 11.091462,11.0836 11.021628,11.04975 10.787286,10.885126 10.11945,10.415982 9.3206727,10.112639 8.5183374,10.023471 8.2547472,9.994177 7.7449672,9.994197 7.4816626,10.023512 c -0.7795388,0.08679 -1.5456527,0.371373 -2.2059714,0.819436 -0.3383957,0.22962 -0.3640773,0.242268 -0.5103524,0.251354 -0.1074294,0.0067 -0.1465357,-2.8e-5 -0.2282408,-0.03911 z"
     id="path6" />
  <path
     style="fill:#808080;fill-rule:evenodd;stroke-width:0.0195599"
     d="M 2.6306802,8.8130202 C 2.2962886,8.7113029 2.1593048,8.3442199 2.3491161,8.0584972 2.4258282,7.9430225 2.9955648,7.532582 3.4774837,7.2456166 3.7624276,7.0759428 4.4964548,6.7183485 4.7726161,6.61467 5.5263427,6.3317004 6.1682339,6.1692514 6.9202437,6.0711512 7.369848,6.0125 8.3165578,5.9978264 8.7821629,6.0422922 9.2219411,6.0842916 9.4597876,6.1202042 9.8483437,6.2032755 11.042027,6.458479 12.19749,6.9698397 13.18158,7.6784289 c 0.126104,0.090801 0.266795,0.1914978 0.312648,0.2237716 0.280227,0.1972415 0.324988,0.5329127 0.102604,0.7694402 C 13.469252,8.8073346 13.289551,8.856409 13.11067,8.8044067 13.037027,8.7829983 12.945739,8.7282255 12.810491,8.624301 11.965614,7.9750983 10.938371,7.4825726 9.8973105,7.227538 9.2196119,7.0615182 8.7297129,7.0036922 8,7.0035861 7.4381854,7.0035043 7.1661361,7.0252118 6.6699267,7.109716 5.4071245,7.3247706 4.2134758,7.8440571 3.1882641,8.6243832 2.9429923,8.8110686 2.7920925,8.8621197 2.6306802,8.8130202 Z"
     id="path7" />
  <path
     style="fill:#808080;fill-rule:evenodd;stroke-width:0.0195599"
     d="M 0.61205592,6.5625739 C 0.54767478,6.5431666 0.4428418,6.4729072 0.39542274,6.4173858 0.25958769,6.2583405 0.23492466,6.0405629 0.33247873,5.8615818 0.39069138,5.75478 0.38954624,5.7557696 0.8997555,5.37135 1.8842926,4.6295456 3.0551198,4.0179681 4.2692767,3.6112923 4.7254003,3.458516 5.378158,3.2873177 5.7701711,3.2176537 5.8239609,3.2080948 5.9427873,3.1870696 6.0342298,3.1709309 6.8999877,3.0181333 7.993581,2.970024 8.9388753,3.0431499 c 1.9693717,0.1523463 3.9452367,0.8343354 5.6039117,1.9342449 0.32022,0.2123456 0.502902,0.3453759 0.986469,0.7183509 0.237052,0.1828384 0.264306,0.5251104 0.05867,0.7368448 -0.09253,0.095281 -0.169388,0.1321148 -0.300146,0.1438541 C 15.137358,6.5899495 15.034253,6.5572424 14.900876,6.4537105 13.891126,5.6699079 13.053328,5.1796548 12.009685,4.7618757 11.465635,4.5440877 10.63582,4.2984243 10.132029,4.2060031 10.035208,4.1882411 9.9163814,4.1657634 9.8679707,4.1560528 9.8195599,4.1463422 9.7095355,4.1286923 9.6234719,4.1168307 9.5374083,4.1049692 9.40978,4.0873003 9.3398533,4.0775664 8.9329025,4.0209186 8.7197387,4.0103827 7.99022,4.010859 7.3785179,4.0112584 7.1564974,4.0185493 6.9242054,4.0458654 6.3984812,4.1076874 6.3029758,4.1222204 5.8679707,4.2065926 5.2658537,4.3233772 4.6075002,4.5173613 4.0016849,4.7564945 3.0956792,5.1141217 2.1796405,5.6319065 1.3896493,6.2329303 1.2434179,6.3441829 1.0919823,6.4593285 1.0531258,6.4888096 0.93955531,6.5749768 0.75538048,6.6057782 0.61205592,6.5625739 Z"
     id="path8" />
</svg>
