<?xml version="1.0" encoding="UTF-8" standalone="no"?>
<svg
   width="16"
   height="16"
   version="1.1"
   id="svg4"
   sodipodi:docname="network-wireless-secure-signal-none.svg"
   inkscape:version="1.4.2 (ebf0e940d0, 2025-05-08)"
   xmlns:inkscape="http://www.inkscape.org/namespaces/inkscape"
   xmlns:sodipodi="http://sodipodi.sourceforge.net/DTD/sodipodi-0.dtd"
   xmlns="http://www.w3.org/2000/svg"
   xmlns:svg="http://www.w3.org/2000/svg">
  <defs
     id="defs4" />
  <sodipodi:namedview
     id="namedview4"
     pagecolor="#ffffff"
     bordercolor="#000000"
     borderopacity="0.25"
     inkscape:showpageshadow="2"
     inkscape:pageopacity="0.0"
     inkscape:pagecheckerboard="0"
     inkscape:deskcolor="#d1d1d1"
     inkscape:zoom="51.125"
     inkscape:cx="7.99022"
     inkscape:cy="8"
     inkscape:window-width="1876"
     inkscape:window-height="1002"
     inkscape:window-x="0"
     inkscape:window-y="0"
     inkscape:window-maximized="1"
     inkscape:current-layer="svg4" />
  <g
     fill="#f2f2f2"
     opacity=".35"
     id="g3">
    <path
       d="m8 3c-2.8405-3e-7 -5.4324 1.0071-7.4863 2.6582a0.5 0.5 0 0 0-0.095703 0.072266 0.5 0.5 0 0 0-0.1543 0.35938 0.5 0.5 0 0 0 0.5 0.5 0.5 0.5 0 0 0 0.31836-0.11328c1.891-1.5388 4.2898-2.4766 6.918-2.4766 2.6282-3e-7 5.0269 0.93776 6.918 2.4766a0.5 0.5 0 0 0 0.31836 0.11328 0.5 0.5 0 0 0 0.5-0.5 0.5 0.5 0 0 0-0.1543-0.35938 0.5 0.5 0 0 0-0.0957-0.072266c-2.0539-1.6511-4.6459-2.6582-7.4863-2.6582z"
       fill-rule="evenodd"
       style="paint-order:stroke fill markers"
       id="path1" />
    <path
       d="m8 9c-1.3525-2e-7 -2.5832 0.46891-3.5859 1.2246-0.11034 0.09497-0.16795 0.23918-0.16797 0.38477 0 0.27614 0.22386 0.5 0.5 0.5 0.12436-3.26e-4 0.24413-0.04698 0.33594-0.13086 0.82215-0.60306 1.8199-0.97852 2.918-0.97852 0.92546-2e-7 1.7719 0.27777 2.5098 0.72266 0.14371-0.3097 0.32863-0.59132 0.55078-0.83594-0.8972-0.54706-1.9321-0.88672-3.0605-0.88672z"
       style=""
       id="path2" />
    <path
       d="m8 6c-2.0731 0-3.9681 0.71726-5.4883 1.8965a0.5 0.5 0 0 0-0.10156 0.074219 0.5 0.5 0 0 0-0.15625 0.36133 0.5 0.5 0 0 0 0.5 0.5 0.5 0.5 0 0 0 0.32031-0.11523c1.3588-1.0688 3.0627-1.7168 4.9258-1.7168 1.8631-2e-7 3.567 0.64796 4.9258 1.7168a0.5 0.5 0 0 0 0.32031 0.11523 0.5 0.5 0 0 0 0.5-0.5 0.5 0.5 0 0 0-0.15625-0.36133 0.5 0.5 0 0 0-0.10156-0.074219c-1.5202-1.1792-3.4152-1.8965-5.4883-1.8965z"
       fill-rule="evenodd"
       style="paint-order:stroke fill markers"
       id="path3" />
    <circle
       cx="8"
       cy="13"
       r="1"
       fill-rule="evenodd"
       style="paint-order:stroke fill markers"
       id="circle3" />
  </g>
  <path
     d="m13 10c-1.108 0-2 0.892-2 2-0.554 0-1 0.446-1 1v2c0 0.554 0.446 1 1 1h4c0.554 0 1-0.446 1-1v-2c0-0.554-0.446-1-1-1 0-1.108-0.892-2-2-2zm0 1c0.554 0 1 0.446 1 1h-2c0-0.554 0.446-1 1-1z"
     fill="#f2f2f2"
     fill-rule="evenodd"
     opacity=".35"
     style="paint-order:normal"
     id="path4" />
  <path
     style="fill:#808080;fill-rule:evenodd;stroke-width:0.0195599"
     d="M 4.537098,11.055195 C 4.373731,10.977057 4.2762058,10.834742 4.2594582,10.650047 4.2431875,10.470611 4.3235777,10.285791 4.4570456,10.195787 4.8496413,9.9310399 5.0021694,9.8344192 5.185206,9.7345252 6.1195648,9.2245897 7.1563881,8.976374 8.195599,9.0138368 c 0.1828851,0.00659 0.3501223,0.015518 0.3716382,0.019834 0.021516,0.00432 0.091932,0.014035 0.1564792,0.0216 0.4105506,0.048111 0.9675214,0.1959181 1.4177416,0.3762352 0.314594,0.1259979 0.899673,0.4251966 0.899983,0.4602348 6.8e-5,0.00769 -0.0249,0.042902 -0.05549,0.07824 -0.123331,0.1424732 -0.280191,0.3726232 -0.375366,0.5507502 -0.05534,0.103574 -0.104412,0.188316 -0.109046,0.188316 -0.0046,0 -0.04126,-0.02028 -0.08139,-0.04507 C 10.0545,10.438092 9.4254844,10.195059 8.9486553,10.095431 8.619086,10.026572 8.3526349,10.00021 7.99022,10.000605 c -0.9739878,0.0011 -1.8966661,0.287378 -2.7145288,0.842343 -0.3383957,0.22962 -0.3640773,0.242268 -0.5103524,0.251354 -0.1074294,0.0067 -0.1465357,-2.8e-5 -0.2282408,-0.03911 z"
     id="path5" />
  <path
     style="fill:#808080;fill-rule:evenodd;stroke-width:0.0195599"
     d="M 7.7679037,13.964079 C 7.5982091,13.923005 7.4281724,13.825172 7.2956653,13.692371 7.100003,13.496274 7.0117902,13.27991 7.0127031,12.998335 7.0132965,12.815301 7.0373161,12.708136 7.1115204,12.557457 7.2795826,12.21619 7.6116544,12.012533 8,12.01256 c 0.555387,3.9e-5 0.9866689,0.430549 0.9875429,0.985775 4.424e-4,0.281094 -0.086037,0.493251 -0.2833864,0.695222 -0.244499,0.250226 -0.5980542,0.352382 -0.9362528,0.270522 z"
     id="path6" />
  <path
     style="fill:#808080;fill-rule:evenodd;stroke-width:0.0195599"
     d="m 10.752192,15.959773 c -0.375863,-0.101169 -0.667879,-0.415025 -0.728057,-0.782507 -0.027462,-0.167703 -0.025116,-2.247835 0.0027,-2.379237 0.02818,-0.133199 0.112835,-0.318237 0.188354,-0.411703 0.137807,-0.170553 0.39575,-0.33135 0.572113,-0.356643 0.04841,-0.0069 0.105624,-0.01579 0.127139,-0.01966 0.02152,-0.0039 0.04909,-0.0077 0.06127,-0.0085 0.01321,-8.93e-4 0.02758,-0.06271 0.0356,-0.153086 0.11548,-1.301405 1.371851,-2.1394284 2.612172,-1.742369 0.754352,0.241487 1.300701,0.936543 1.362609,1.733485 0.0064,0.08288 0.01301,0.152414 0.0146,0.154516 0.0016,0.0021 0.06226,0.01331 0.134828,0.0249 0.377533,0.06031 0.654781,0.282232 0.798857,0.639439 l 0.04608,0.114233 0.0056,1.171849 c 0.0038,0.798796 -0.0012,1.204906 -0.01593,1.275687 -0.05055,0.243479 -0.274123,0.537604 -0.499713,0.657392 -0.219898,0.116766 -0.131772,0.112795 -2.472083,0.111389 -1.789937,-0.0011 -2.159633,-0.0059 -2.246143,-0.02916 z m 3.240551,-4.095005 c -0.04049,-0.378949 -0.353503,-0.733802 -0.73491,-0.833146 -0.362916,-0.09453 -0.756581,0.02212 -1.001316,0.29671 C 12.109438,11.493351 12,11.752452 12,11.93565 V 12 h 1.003596 1.003597 z"
     id="path7" />
  <path
     style="fill:#808080;fill-rule:evenodd;stroke-width:0.0195599"
     d="M 2.6306802,8.8130202 C 2.2962886,8.7113029 2.1593048,8.3442199 2.3491161,8.0584972 2.4258282,7.9430225 2.9955648,7.532582 3.4774837,7.2456166 3.7624276,7.0759428 4.4964548,6.7183485 4.7726161,6.61467 5.5263427,6.3317004 6.1682339,6.1692514 6.9202437,6.0711512 7.369848,6.0125 8.3165578,5.9978264 8.7821629,6.0422922 9.2219411,6.0842916 9.4597876,6.1202042 9.8483437,6.2032755 11.042027,6.458479 12.19749,6.9698397 13.18158,7.6784289 c 0.126104,0.090801 0.266795,0.1914978 0.312648,0.2237716 0.280227,0.1972415 0.324988,0.5329127 0.102604,0.7694402 C 13.469252,8.8073346 13.289551,8.856409 13.11067,8.8044067 13.037027,8.7829983 12.945739,8.7282255 12.810491,8.624301 11.965614,7.9750983 10.938371,7.4825726 9.8973105,7.227538 9.2196119,7.0615182 8.7297129,7.0036922 8,7.0035861 7.4381854,7.0035043 7.1661361,7.0252118 6.6699267,7.109716 5.4071245,7.3247706 4.2134758,7.8440571 3.1882641,8.6243832 2.9429923,8.8110686 2.7920925,8.8621197 2.6306802,8.8130202 Z"
     id="path8" />
  <path
     style="fill:#808080;fill-rule:evenodd;stroke-width:0.0195599"
     d="M 0.61205592,6.5625739 C 0.54767478,6.5431666 0.4428418,6.4729072 0.39542274,6.4173858 0.25958769,6.2583405 0.23492466,6.0405629 0.33247873,5.8615818 0.39069138,5.75478 0.38954624,5.7557696 0.8997555,5.37135 1.8842926,4.6295456 3.0551198,4.0179681 4.2692767,3.6112923 4.7254003,3.458516 5.378158,3.2873177 5.7701711,3.2176537 5.8239609,3.2080948 5.9427873,3.1870696 6.0342298,3.1709309 6.8999877,3.0181333 7.993581,2.970024 8.9388753,3.0431499 c 1.9693717,0.1523463 3.9452367,0.8343354 5.6039117,1.9342449 0.32022,0.2123456 0.502902,0.3453759 0.986469,0.7183509 0.237052,0.1828384 0.264306,0.5251104 0.05867,0.7368448 -0.09253,0.095281 -0.169388,0.1321148 -0.300146,0.1438541 C 15.137358,6.5899495 15.034253,6.5572424 14.900876,6.4537105 13.891126,5.6699079 13.053328,5.1796548 12.009685,4.7618757 11.465635,4.5440877 10.63582,4.2984243 10.132029,4.2060031 10.035208,4.1882411 9.9163814,4.1657634 9.8679707,4.1560528 9.8195599,4.1463422 9.7095355,4.1286923 9.6234719,4.1168307 9.5374083,4.1049692 9.40978,4.0873003 9.3398533,4.0775664 8.9329025,4.0209186 8.7197387,4.0103827 7.99022,4.010859 7.3785179,4.0112584 7.1564974,4.0185493 6.9242054,4.0458654 6.3984812,4.1076874 6.3029758,4.1222204 5.8679707,4.2065926 5.2658537,4.3233772 4.6075002,4.5173613 4.0016849,4.7564945 3.0956792,5.1141217 2.1796405,5.6319065 1.3896493,6.2329303 1.2434179,6.3441829 1.0919823,6.4593285 1.0531258,6.4888096 0.93955531,6.5749768 0.75538048,6.6057782 0.61205592,6.5625739 Z"
     id="path9" />
</svg>
