<?xml version="1.0" encoding="UTF-8" standalone="no"?>
<svg
   width="16"
   height="16"
   version="1.1"
   id="svg3"
   sodipodi:docname="network-wireless-signal-ok.svg"
   inkscape:version="1.4.2 (ebf0e940d0, 2025-05-08)"
   xmlns:inkscape="http://www.inkscape.org/namespaces/inkscape"
   xmlns:sodipodi="http://sodipodi.sourceforge.net/DTD/sodipodi-0.dtd"
   xmlns="http://www.w3.org/2000/svg"
   xmlns:svg="http://www.w3.org/2000/svg">
  <defs
     id="defs3" />
  <sodipodi:namedview
     id="namedview3"
     pagecolor="#ffffff"
     bordercolor="#000000"
     borderopacity="0.25"
     inkscape:showpageshadow="2"
     inkscape:pageopacity="0.0"
     inkscape:pagecheckerboard="0"
     inkscape:deskcolor="#d1d1d1"
     inkscape:zoom="51.125"
     inkscape:cx="7.99022"
     inkscape:cy="8"
     inkscape:window-width="1876"
     inkscape:window-height="1002"
     inkscape:window-x="0"
     inkscape:window-y="0"
     inkscape:window-maximized="1"
     inkscape:current-layer="svg3" />
  <g
     fill="#f2f2f2"
     id="g3">
    <path
       d="m8 3c-2.8405-3e-7 -5.4324 1.0071-7.4863 2.6582a0.5 0.5 0 0 0-0.095703 0.072266 0.5 0.5 0 0 0-0.1543 0.35938 0.5 0.5 0 0 0 0.5 0.5 0.5 0.5 0 0 0 0.31836-0.11328c1.891-1.5388 4.2898-2.4766 6.918-2.4766 2.6282-3e-7 5.0269 0.93776 6.918 2.4766a0.5 0.5 0 0 0 0.31836 0.11328 0.5 0.5 0 0 0 0.5-0.5 0.5 0.5 0 0 0-0.1543-0.35938 0.5 0.5 0 0 0-0.0957-0.072266c-2.0539-1.6511-4.6459-2.6582-7.4863-2.6582z"
       fill-rule="evenodd"
       opacity=".25"
       style="paint-order:stroke fill markers"
       id="path1" />
    <path
       d="m8 9c-1.3525-2e-7 -2.5832 0.46891-3.5859 1.2246-0.11034 0.09497-0.16795 0.23918-0.16797 0.38477 0 0.27614 0.22386 0.5 0.5 0.5 0.12436-3.26e-4 0.24413-0.04698 0.33594-0.13086 0.82215-0.60306 1.8199-0.97852 2.918-0.97852 1.0981-2e-7 2.0958 0.37546 2.918 0.97852 0.09181 0.08388 0.21158 0.13053 0.33594 0.13086 0.27614 0 0.5-0.22386 0.5-0.5-1.6e-5 -0.14559-0.05762-0.2898-0.16797-0.38477-1.0027-0.7557-2.2334-1.2246-3.5859-1.2246z"
       id="path2" />
    <path
       d="m8 6c-2.0731 0-3.9681 0.71726-5.4883 1.8965a0.5 0.5 0 0 0-0.10156 0.074219 0.5 0.5 0 0 0-0.15625 0.36133 0.5 0.5 0 0 0 0.5 0.5 0.5 0.5 0 0 0 0.32031-0.11523c1.3588-1.0688 3.0627-1.7168 4.9258-1.7168 1.8631-2e-7 3.567 0.64796 4.9258 1.7168a0.5 0.5 0 0 0 0.32031 0.11523 0.5 0.5 0 0 0 0.5-0.5 0.5 0.5 0 0 0-0.15625-0.36133 0.5 0.5 0 0 0-0.10156-0.074219c-1.5202-1.1792-3.4152-1.8965-5.4883-1.8965z"
       fill-rule="evenodd"
       opacity=".25"
       style="paint-order:stroke fill markers"
       id="path3" />
    <circle
       cx="8"
       cy="13"
       r="1"
       fill-rule="evenodd"
       style="paint-order:stroke fill markers"
       id="circle3" />
  </g>
  <path
     style="fill:#808080;fill-rule:evenodd;stroke-width:0.0195599"
     d="M 2.529118,8.7767945 C 2.3593589,8.6922001 2.2600279,8.5282015 2.2600279,8.3325183 c 0,-0.2164377 0.070841,-0.3129842 0.4104409,-0.559372 C 3.5854973,7.1092708 4.4615879,6.6735761 5.5354523,6.3483412 6.4054157,6.0848606 7.5772229,5.952074 8.4987775,6.0125437 c 0.1882641,0.012353 0.3643032,0.025875 0.3911981,0.030049 0.026895,0.00417 0.1061124,0.013308 0.1760391,0.020298 0.1141238,0.011409 0.5997435,0.090742 0.7237164,0.1182293 0.026895,0.00596 0.09291,0.019506 0.1466992,0.030096 0.3051337,0.060072 1.0706707,0.2998759 1.3985327,0.4380891 0.08068,0.034013 0.177251,0.074573 0.214592,0.090132 0.156209,0.065088 0.664761,0.3214864 0.858186,0.4326739 0.423927,0.2436888 1.049709,0.6725013 1.193447,0.817801 0.09402,0.095041 0.138702,0.2036381 0.139214,0.3383448 9.95e-4,0.2619932 -0.177001,0.46491 -0.434344,0.4951556 C 13.140102,8.8429172 13.029949,8.7983102 12.787337,8.6133547 11.831278,7.8845035 10.617272,7.349096 9.4278729,7.1317453 8.9074911,7.0366507 8.7169285,7.0220049 8,7.0220049 c -0.6740962,0 -0.936002,0.017655 -1.3105134,0.088343 C 6.6356968,7.1205 6.5652812,7.1333433 6.5330073,7.138888 6.4037146,7.1611009 6.3476115,7.1734164 6.1222494,7.2290556 5.7406607,7.3232652 5.4569858,7.4138391 5.0757946,7.5631755 4.8798877,7.6399245 4.8933164,7.6338717 4.5476773,7.8012181 4.0498983,8.0422253 3.6163207,8.3079695 3.1609784,8.6511398 2.9051706,8.8439302 2.7326782,8.878233 2.529118,8.7767945 Z"
     id="path4" />
  <path
     style="fill:#808080;fill-rule:evenodd;stroke-width:0.0195599"
     d="M 0.68154026,6.5793451 C 0.41743042,6.5327844 0.24292192,6.3033567 0.27024587,6.0386132 0.29105987,5.8369449 0.34600098,5.7778058 0.8997555,5.361003 1.5378786,4.8806973 2.4246641,4.3603821 3.1491443,4.0411896 3.2782396,3.9843126 3.4115959,3.9253729 3.4454912,3.9102123 3.7037983,3.7946789 4.2442684,3.6036216 4.6552567,3.4825579 5.7817627,3.1507261 6.795451,3.0067527 8,3.0075064 c 1.3745477,8.602e-4 2.467471,0.1781967 3.779367,0.613236 0.593911,0.1969475 1.398712,0.5469486 1.873445,0.8147446 0.06455,0.036411 0.161076,0.090643 0.214508,0.1205157 0.487677,0.2726457 1.082575,0.6751108 1.56974,1.0619729 0.217401,0.1726396 0.279656,0.2665022 0.293824,0.4429999 0.01645,0.2049823 -0.08524,0.3783063 -0.277018,0.4721335 -0.17156,0.083937 -0.374434,0.065274 -0.519881,-0.047825 -0.431841,-0.3357977 -0.847131,-0.6319304 -1.154034,-0.8229125 -0.05917,-0.03682 -0.125183,-0.077894 -0.146699,-0.091275 -0.02152,-0.013382 -0.05124,-0.030448 -0.06606,-0.037926 -0.01482,-0.00748 -0.100389,-0.055859 -0.190158,-0.1075146 C 13.091992,5.2616356 12.58897,5.0129627 12.224939,4.8561083 11.656552,4.6112006 11.034894,4.4136713 10.337408,4.2563525 10.010462,4.1826093 10.045589,4.188774 9.3789731,4.0881519 9.3220923,4.0795661 9.2233661,4.0688041 8.8997555,4.0359132 8.5915296,4.0045859 7.4069889,4.0046886 7.1002445,4.0360692 6.7182132,4.0751517 6.6520923,4.0823892 6.6170289,4.0889612 6.598693,4.0923979 6.4842676,4.1095534 6.3627501,4.1270846 5.5087493,4.2502898 4.3544865,4.5840712 3.6510684,4.9112291 c -0.078954,0.036721 -0.1480163,0.066766 -0.1534717,0.066766 -0.00546,0 -0.1829103,0.086741 -0.3943445,0.1927582 -0.3591339,0.1800762 -0.8969942,0.4912862 -1.1668219,0.6751321 -0.252232,0.171857 -0.5359887,0.3780905 -0.7041565,0.511779 -0.096821,0.07697 -0.204766,0.1548 -0.23987664,0.1729551 -0.0888471,0.045941 -0.21472733,0.065672 -0.3108569,0.048726 z"
     id="path5" />
  <path
     style="fill:#000000;fill-rule:evenodd;stroke-width:0.0195599"
     d="M 4.5818674,11.073537 C 4.2725936,10.958112 4.1596623,10.59081 4.3477241,10.312001 4.4800253,10.115859 5.4669193,9.5549615 6.0401144,9.350137 7.3605074,8.8783099 8.8224951,8.9000354 10.11838,9.4107409 c 0.436588,0.1720586 0.826225,0.3814431 1.25915,0.6766471 0.253573,0.172908 0.318444,0.248115 0.351941,0.408022 0.04571,0.218233 -0.04005,0.420914 -0.226715,0.535805 -0.08494,0.05228 -0.113704,0.05925 -0.244498,0.05925 -0.16588,0 -0.174554,-0.0039 -0.483712,-0.217237 -0.660944,-0.4561 -1.4429626,-0.754604 -2.2268687,-0.850019 -0.245173,-0.029841 -0.8623762,-0.029877 -1.0953546,-6.3e-5 -0.7929809,0.101477 -1.5095458,0.37119 -2.1787732,0.820084 -0.1225307,0.08219 -0.2575117,0.170313 -0.2999579,0.195831 -0.096046,0.05774 -0.284861,0.07436 -0.3917242,0.03448 z"
     id="path6" />
  <path
     style="fill:#000000;fill-rule:evenodd;stroke-width:0.0195599"
     d="M 7.7801987,13.965494 C 7.3402465,13.869911 7.013224,13.461447 7.0124571,13.006555 7.0118686,12.657496 7.1798556,12.35308 7.4801834,12.158969 c 0.2166794,-0.140047 0.5380695,-0.185097 0.7936552,-0.111248 0.7148722,0.206555 0.9539327,1.119923 0.4303149,1.644085 -0.2499752,0.250236 -0.5808211,0.348237 -0.9239548,0.273688 z"
     id="path7" />
</svg>
