<?xml version="1.0" encoding="UTF-8" standalone="no"?>
<svg
   width="16"
   height="16"
   version="1.1"
   id="svg4"
   sodipodi:docname="network-wireless-secure-signal-good.svg"
   inkscape:version="1.4.2 (ebf0e940d0, 2025-05-08)"
   xmlns:inkscape="http://www.inkscape.org/namespaces/inkscape"
   xmlns:sodipodi="http://sodipodi.sourceforge.net/DTD/sodipodi-0.dtd"
   xmlns="http://www.w3.org/2000/svg"
   xmlns:svg="http://www.w3.org/2000/svg">
  <defs
     id="defs4" />
  <sodipodi:namedview
     id="namedview4"
     pagecolor="#ffffff"
     bordercolor="#000000"
     borderopacity="0.25"
     inkscape:showpageshadow="2"
     inkscape:pageopacity="0.0"
     inkscape:pagecheckerboard="0"
     inkscape:deskcolor="#d1d1d1"
     inkscape:zoom="51.125"
     inkscape:cx="7.99022"
     inkscape:cy="8"
     inkscape:window-width="1876"
     inkscape:window-height="1002"
     inkscape:window-x="0"
     inkscape:window-y="0"
     inkscape:window-maximized="1"
     inkscape:current-layer="svg4" />
  <g
     fill="#f2f2f2"
     id="g3">
    <path
       d="m8 3c-2.8405-3e-7 -5.4324 1.0071-7.4863 2.6582a0.5 0.5 0 0 0-0.095703 0.072266 0.5 0.5 0 0 0-0.1543 0.35938 0.5 0.5 0 0 0 0.5 0.5 0.5 0.5 0 0 0 0.31836-0.11328c1.891-1.5388 4.2898-2.4766 6.918-2.4766 2.6282-3e-7 5.0269 0.93776 6.918 2.4766a0.5 0.5 0 0 0 0.31836 0.11328 0.5 0.5 0 0 0 0.5-0.5 0.5 0.5 0 0 0-0.1543-0.35938 0.5 0.5 0 0 0-0.0957-0.072266c-2.0539-1.6511-4.6459-2.6582-7.4863-2.6582z"
       fill-rule="evenodd"
       opacity=".35"
       style="paint-order:stroke fill markers"
       id="path1" />
    <path
       d="m8 9c-1.3525-2e-7 -2.5832 0.46891-3.5859 1.2246-0.11034 0.09497-0.16795 0.23918-0.16797 0.38477 0 0.27614 0.22386 0.5 0.5 0.5 0.12436-3.26e-4 0.24413-0.04698 0.33594-0.13086 0.82215-0.60306 1.8199-0.97852 2.918-0.97852 0.92546-2e-7 1.7719 0.27777 2.5098 0.72266 0.14371-0.3097 0.32863-0.59132 0.55078-0.83594-0.8972-0.54706-1.9321-0.88672-3.0605-0.88672z"
       id="path2" />
    <path
       d="m8 6c-2.0731 0-3.9681 0.71726-5.4883 1.8965a0.5 0.5 0 0 0-0.10156 0.074219 0.5 0.5 0 0 0-0.15625 0.36133 0.5 0.5 0 0 0 0.5 0.5 0.5 0.5 0 0 0 0.32031-0.11523c1.3588-1.0688 3.0627-1.7168 4.9258-1.7168 1.8631-2e-7 3.567 0.64796 4.9258 1.7168a0.5 0.5 0 0 0 0.32031 0.11523 0.5 0.5 0 0 0 0.5-0.5 0.5 0.5 0 0 0-0.15625-0.36133 0.5 0.5 0 0 0-0.10156-0.074219c-1.5202-1.1792-3.4152-1.8965-5.4883-1.8965z"
       fill-rule="evenodd"
       style="paint-order:stroke fill markers"
       id="path3" />
    <circle
       cx="8"
       cy="13"
       r="1"
       fill-rule="evenodd"
       style="paint-order:stroke fill markers"
       id="circle3" />
  </g>
  <path
     d="m13 10c-1.108 0-2 0.892-2 2-0.554 0-1 0.446-1 1v2c0 0.554 0.446 1 1 1h4c0.554 0 1-0.446 1-1v-2c0-0.554-0.446-1-1-1 0-1.108-0.892-2-2-2zm0 1c0.554 0 1 0.446 1 1h-2c0-0.554 0.446-1 1-1z"
     fill="#f2f2f2"
     fill-rule="evenodd"
     style="paint-order:normal"
     id="path4" />
  <path
     style="fill:#000000;fill-rule:evenodd;stroke-width:0.0195599"
     d="M 7.7801987,13.965494 C 7.3402465,13.869911 7.013224,13.461447 7.0124571,13.006555 7.0118686,12.657496 7.1798556,12.35308 7.4801834,12.158969 c 0.2166794,-0.140047 0.5380695,-0.185097 0.7936552,-0.111248 0.7148722,0.206555 0.9539327,1.119923 0.4303149,1.644085 -0.2499752,0.250236 -0.5808211,0.348237 -0.9239548,0.273688 z"
     id="path5" />
  <path
     style="fill:#000000;fill-rule:evenodd;stroke-width:0.0195599"
     d="M 4.5818674,11.073537 C 4.2725936,10.958112 4.1596623,10.59081 4.3477241,10.312001 4.4800253,10.115859 5.4669193,9.5549615 6.0401144,9.350137 7.4319439,8.8527829 8.9252546,8.9021728 10.278729,9.4903255 c 0.237002,0.1029895 0.538232,0.2566692 0.690452,0.3522514 l 0.07432,0.046664 -0.06454,0.079059 c -0.125599,0.1538631 -0.28092,0.3836701 -0.377176,0.5580521 l -0.09748,0.176604 -0.274157,-0.142289 C 9.6699943,10.269946 9.1374357,10.101402 8.5281174,10.022011 8.3054956,9.993004 7.6834429,9.993691 7.4523227,10.023211 c -0.7922114,0.101143 -1.509513,0.371116 -2.1787732,0.820032 -0.1225307,0.08219 -0.2575117,0.170313 -0.2999579,0.195831 -0.096046,0.05774 -0.284861,0.07436 -0.3917242,0.03448 z"
     id="path6" />
  <path
     style="fill:#000000;fill-rule:evenodd;stroke-width:0.0195599"
     d="m 10.753536,15.960117 c -0.374196,-0.100786 -0.665646,-0.415113 -0.728013,-0.785158 -0.01567,-0.09298 -0.0206,-0.474118 -0.01625,-1.258089 0.0061,-1.108639 0.0069,-1.126347 0.04991,-1.240474 0.05975,-0.158385 0.142168,-0.281396 0.2687,-0.401065 0.124839,-0.118067 0.347853,-0.230784 0.488746,-0.247024 0.192594,-0.0222 0.177752,-0.0061 0.202154,-0.218686 0.01206,-0.105072 0.03521,-0.241632 0.05144,-0.303467 0.188591,-0.718604 0.748032,-1.266754 1.477457,-1.447637 0.256495,-0.063606 0.684137,-0.05826 0.948656,0.01186 0.40677,0.107827 0.796101,0.358363 1.050917,0.676269 0.143602,0.179155 0.280086,0.427635 0.344639,0.627439 0.04694,0.145298 0.100776,0.438754 0.100776,0.549353 0,0.07149 0.0032,0.07526 0.07335,0.08542 0.173305,0.02512 0.334769,0.075 0.432552,0.13362 0.230327,0.138075 0.401963,0.369451 0.461535,0.622177 0.04415,0.187296 0.04429,2.301582 1.59e-4,2.473287 -0.09316,0.362498 -0.395081,0.657249 -0.74851,0.730727 -0.07202,0.01497 -0.752548,0.02116 -2.229829,0.02026 -1.763302,-0.0011 -2.14362,-0.006 -2.228386,-0.02882 z m 3.248998,-4.053027 c -0.0517,-0.421827 -0.331223,-0.756366 -0.729801,-0.87344 -0.151017,-0.04436 -0.415932,-0.04083 -0.572817,0.0076 C 12.314603,11.160287 12,11.5579 12,11.92587 V 12 h 1.006961 1.006961 z"
     id="path7" />
  <path
     style="fill:#000000;fill-rule:evenodd;stroke-width:0.0195599"
     d="M 2.6797066,8.8179724 C 2.5092708,8.7796958 2.3864815,8.689851 2.3121229,8.5490114 2.2532988,8.4375953 2.253427,8.2272055 2.312387,8.1155075 2.3643024,8.0171554 2.4193992,7.9681901 2.7401849,7.735318 3.8473412,6.9315855 5.1101109,6.386273 6.405868,6.1523351 7.0795652,6.0307048 7.9881074,5.9822814 8.6552567,6.0324475 10.31803,6.1574791 11.884217,6.7372627 13.264307,7.7386623 c 0.315978,0.2292759 0.371503,0.2787063 0.423306,0.3768452 0.05573,0.1055767 0.05906,0.3221686 0.0065,0.4223898 -0.111988,0.2135353 -0.327111,0.3200814 -0.552,0.2733946 C 13.06017,8.7942801 12.994181,8.7565547 12.827288,8.6313076 11.634913,7.736474 10.352192,7.2201482 8.8704156,7.0385729 c -0.3991724,-0.048914 -1.3416588,-0.048914 -1.7408312,0 C 5.6489299,7.2200108 4.3565551,7.740284 3.17443,8.6308053 3.0137932,8.7518165 2.9417913,8.7935527 2.8653987,8.8099358 2.7623444,8.8320372 2.7455665,8.8327632 2.6797066,8.8179724 Z"
     id="path8" />
  <path
     style="fill:#999999;fill-rule:evenodd;stroke-width:0.0195599"
     d="M 0.61205592,6.5625739 C 0.54767478,6.5431666 0.4428418,6.4729072 0.39542274,6.4173858 0.25958769,6.2583405 0.23492466,6.0405629 0.33247873,5.8615818 0.39069138,5.75478 0.38954624,5.7557696 0.8997555,5.37135 1.8842926,4.6295456 3.0551198,4.0179681 4.2692767,3.6112923 4.7254003,3.458516 5.378158,3.2873177 5.7701711,3.2176537 5.8239609,3.2080948 5.9427873,3.1870696 6.0342298,3.1709309 6.8999877,3.0181333 7.993581,2.970024 8.9388753,3.0431499 c 1.9693717,0.1523463 3.9452367,0.8343354 5.6039117,1.9342449 0.32022,0.2123456 0.502902,0.3453759 0.986469,0.7183509 0.237052,0.1828384 0.264306,0.5251104 0.05867,0.7368448 -0.09253,0.095281 -0.169388,0.1321148 -0.300146,0.1438541 C 15.137358,6.5899495 15.034253,6.5572424 14.900876,6.4537105 13.891126,5.6699079 13.053328,5.1796548 12.009685,4.7618757 11.465635,4.5440877 10.63582,4.2984243 10.132029,4.2060031 10.035208,4.1882411 9.9163814,4.1657634 9.8679707,4.1560528 9.8195599,4.1463422 9.7095355,4.1286923 9.6234719,4.1168307 9.5374083,4.1049692 9.40978,4.0873003 9.3398533,4.0775664 8.9329025,4.0209186 8.7197387,4.0103827 7.99022,4.010859 7.3785179,4.0112584 7.1564974,4.0185493 6.9242054,4.0458654 6.3984812,4.1076874 6.3029758,4.1222204 5.8679707,4.2065926 5.2658537,4.3233772 4.6075002,4.5173613 4.0016849,4.7564945 3.0956792,5.1141217 2.1796405,5.6319065 1.3896493,6.2329303 1.2434179,6.3441829 1.0919823,6.4593285 1.0531258,6.4888096 0.93955531,6.5749768 0.75538048,6.6057782 0.61205592,6.5625739 Z"
     id="path9" />
</svg>
