<?xml version="1.0" encoding="UTF-8" standalone="no"?>
<svg
   width="16"
   height="16"
   version="1.1"
   id="svg3"
   sodipodi:docname="network-wireless-connected.svg"
   inkscape:version="1.4.2 (ebf0e940d0, 2025-05-08)"
   xmlns:inkscape="http://www.inkscape.org/namespaces/inkscape"
   xmlns:sodipodi="http://sodipodi.sourceforge.net/DTD/sodipodi-0.dtd"
   xmlns="http://www.w3.org/2000/svg"
   xmlns:svg="http://www.w3.org/2000/svg">
  <defs
     id="defs3" />
  <sodipodi:namedview
     id="namedview3"
     pagecolor="#ffffff"
     bordercolor="#000000"
     borderopacity="0.25"
     inkscape:showpageshadow="2"
     inkscape:pageopacity="0.0"
     inkscape:pagecheckerboard="0"
     inkscape:deskcolor="#d1d1d1"
     inkscape:zoom="51.125"
     inkscape:cx="7.99022"
     inkscape:cy="8"
     inkscape:window-width="1876"
     inkscape:window-height="1002"
     inkscape:window-x="0"
     inkscape:window-y="0"
     inkscape:window-maximized="1"
     inkscape:current-layer="svg3" />
  <g
     fill="#f2f2f2"
     id="g3">
    <path
       d="m8 3c-2.8405-3e-7 -5.4324 1.0071-7.4863 2.6582a0.5 0.5 0 0 0-0.095703 0.072266 0.5 0.5 0 0 0-0.1543 0.35938 0.5 0.5 0 0 0 0.5 0.5 0.5 0.5 0 0 0 0.31836-0.11328c1.891-1.5388 4.2898-2.4766 6.918-2.4766 2.6282-3e-7 5.0269 0.93776 6.918 2.4766a0.5 0.5 0 0 0 0.31836 0.11328 0.5 0.5 0 0 0 0.5-0.5 0.5 0.5 0 0 0-0.1543-0.35938 0.5 0.5 0 0 0-0.095703-0.072266c-2.0539-1.6511-4.6459-2.6582-7.4863-2.6582z"
       fill-rule="evenodd"
       style="paint-order:stroke fill markers"
       id="path1" />
    <path
       d="m8 9c-1.3525-2e-7 -2.5832 0.46891-3.5859 1.2246-0.11034 0.09497-0.16795 0.23918-0.16797 0.38477 0 0.27614 0.22386 0.5 0.5 0.5 0.12436-3.26e-4 0.24413-0.04698 0.33594-0.13086 0.82215-0.60306 1.8199-0.97852 2.918-0.97852 1.0981-2e-7 2.0958 0.37546 2.918 0.97852 0.091809 0.083879 0.21158 0.13053 0.33594 0.13086 0.27614 0 0.5-0.22386 0.5-0.5-1.6e-5 -0.14559-0.057625-0.2898-0.16797-0.38477-1.0027-0.7557-2.2334-1.2246-3.5859-1.2246z"
       id="path2" />
    <path
       d="m8 6c-2.0731 0-3.9681 0.71726-5.4883 1.8965a0.5 0.5 0 0 0-0.10156 0.074219 0.5 0.5 0 0 0-0.15625 0.36133 0.5 0.5 0 0 0 0.5 0.5 0.5 0.5 0 0 0 0.32031-0.11523c1.3588-1.0688 3.0627-1.7168 4.9258-1.7168 1.8631-2e-7 3.567 0.64796 4.9258 1.7168a0.5 0.5 0 0 0 0.32031 0.11523 0.5 0.5 0 0 0 0.5-0.5 0.5 0.5 0 0 0-0.15625-0.36133 0.5 0.5 0 0 0-0.10156-0.074219c-1.5202-1.1792-3.4152-1.8965-5.4883-1.8965z"
       fill-rule="evenodd"
       style="paint-order:stroke fill markers"
       id="path3" />
    <circle
       cx="8"
       cy="13"
       r="1"
       fill-rule="evenodd"
       style="paint-order:stroke fill markers"
       id="circle3" />
  </g>
  <path
     style="fill:#000000;fill-rule:evenodd;stroke-width:0.0195599"
     d="M 0.56723716,6.5358856 C 0.30471146,6.4133747 0.19829835,6.1082656 0.33225532,5.8621426 0.37877595,5.7766689 0.43998942,5.7211339 0.73149749,5.4999366 1.6901551,4.7725038 2.5660006,4.2732175 3.6288092,3.8482891 c 2.797246,-1.118385 5.964471,-1.1174399 8.7545008,0.00261 1.120315,0.4497481 2.039121,0.9875998 3.120377,1.8266104 C 15.698897,5.828987 15.771,6.043531 15.698382,6.2568354 15.64072,6.4262105 15.426269,6.5813215 15.249213,6.581716 15.120623,6.5820025 15.029474,6.5475077 14.902181,6.4503838 14.145588,5.8731049 13.734351,5.6019102 13.114914,5.2717526 11.867127,4.6066856 10.575491,4.2135065 9.0855746,4.0452049 8.7018682,4.0018612 7.394194,3.9955174 7.0122249,4.0351466 5.5007223,4.1919647 4.1800966,4.5871714 2.8948655,5.267296 2.2768229,5.5943548 1.860672,5.8683282 1.0978186,6.4503838 0.91234703,6.5918983 0.7450398,6.6188595 0.56723716,6.5358856 Z"
     id="path4" />
  <path
     style="fill:#000000;fill-rule:evenodd;stroke-width:0.0195599"
     d="M 2.6797066,8.8179724 C 2.5092708,8.7796958 2.3864815,8.689851 2.3121229,8.5490114 2.2532988,8.4375953 2.253427,8.2272055 2.312387,8.1155075 2.3643024,8.0171554 2.4193992,7.9681901 2.7401849,7.735318 3.8473412,6.9315855 5.1101109,6.386273 6.405868,6.1523351 7.0795652,6.0307048 7.9881074,5.9822814 8.6552567,6.0324475 10.31803,6.1574791 11.884217,6.7372627 13.264307,7.7386623 c 0.315978,0.2292759 0.371503,0.2787063 0.423306,0.3768452 0.05573,0.1055767 0.05906,0.3221686 0.0065,0.4223898 -0.111988,0.2135353 -0.327111,0.3200814 -0.552,0.2733946 C 13.06017,8.7942801 12.994181,8.7565547 12.827288,8.6313076 11.634913,7.736474 10.352192,7.2201482 8.8704156,7.0385729 c -0.3991724,-0.048914 -1.3416588,-0.048914 -1.7408312,0 C 5.6489299,7.2200108 4.3565551,7.740284 3.17443,8.6308053 3.0137932,8.7518165 2.9417913,8.7935527 2.8653987,8.8099358 2.7623444,8.8320372 2.7455665,8.8327632 2.6797066,8.8179724 Z"
     id="path5" />
  <path
     style="fill:#000000;fill-rule:evenodd;stroke-width:0.0195599"
     d="M 4.5818674,11.073537 C 4.2725936,10.958112 4.1596623,10.59081 4.3477241,10.312001 4.4800253,10.115859 5.4669193,9.5549615 6.0401144,9.350137 7.3605074,8.8783099 8.8224951,8.9000354 10.11838,9.4107409 c 0.436588,0.1720586 0.826225,0.3814431 1.25915,0.6766471 0.253573,0.172908 0.318444,0.248115 0.351941,0.408022 0.04571,0.218233 -0.04005,0.420914 -0.226715,0.535805 -0.08494,0.05228 -0.113704,0.05925 -0.244498,0.05925 -0.16588,0 -0.174554,-0.0039 -0.483712,-0.217237 -0.660944,-0.4561 -1.4429626,-0.754604 -2.2268687,-0.850019 -0.245173,-0.029841 -0.8623762,-0.029877 -1.0953546,-6.3e-5 -0.7929809,0.101477 -1.5095458,0.37119 -2.1787732,0.820084 -0.1225307,0.08219 -0.2575117,0.170313 -0.2999579,0.195831 -0.096046,0.05774 -0.284861,0.07436 -0.3917242,0.03448 z"
     id="path6" />
  <path
     style="fill:#000000;fill-rule:evenodd;stroke-width:0.0195599"
     d="M 7.7801987,13.965494 C 7.3402465,13.869911 7.013224,13.461447 7.0124571,13.006555 7.0118686,12.657496 7.1798556,12.35308 7.4801834,12.158969 c 0.2166794,-0.140047 0.5380695,-0.185097 0.7936552,-0.111248 0.7148722,0.206555 0.9539327,1.119923 0.4303149,1.644085 -0.2499752,0.250236 -0.5808211,0.348237 -0.9239548,0.273688 z"
     id="path7" />
</svg>
